<svg id="Capa_1" data-name="Capa 1" xmlns="http://www.w3.org/2000/svg" viewBox="0 0 1474.92 1270.22"><defs><style>.cls-1{fill:#f2ece2;}.cls-1,.cls-10,.cls-11,.cls-12,.cls-13,.cls-14,.cls-15,.cls-16,.cls-17,.cls-18,.cls-19,.cls-2,.cls-20,.cls-21,.cls-22,.cls-23,.cls-24,.cls-25,.cls-26,.cls-27,.cls-28,.cls-29,.cls-3,.cls-4,.cls-5,.cls-6,.cls-7,.cls-8,.cls-9{fill-rule:evenodd;}.cls-2{fill:#626860;}.cls-3{fill:#686c66;}.cls-4{fill:#686d67;}.cls-5{fill:#2e2d27;}.cls-6{fill:#4b4741;}.cls-7{fill:#46403c;}.cls-8{fill:#f0eae0;}.cls-9{fill:#676b65;}.cls-10{fill:#cc9b79;}.cls-11{fill:#656962;}.cls-12{fill:#edeadf;}.cls-13{fill:#eee9e0;}.cls-14{fill:#4f4c46;}.cls-15{fill:#36342e;}.cls-16{fill:#403b37;}.cls-17{fill:#707771;}.cls-18{fill:#6b726c;}.cls-19{fill:#3a3832;}.cls-20{fill:#533b2d;}.cls-21{fill:#56534d;}.cls-22{fill:#262620;}.cls-23{fill:#cc9f7f;}.cls-24{fill:#dfdbd5;}.cls-25{fill:#6a6e68;}.cls-26{fill:#ede9dd;}.cls-27{fill:#d2cfc9;}.cls-28{fill:#cc9b77;}.cls-29{fill:#626760;}</style></defs><title>Icono3</title><path class="cls-1" d="M109.33,1308V604.22H680.06a3.43,3.43,0,0,0,.62,1c15,12.66,26.93,26.36,38.21,40.31,15.2,18.79,30.55,37.52,49.21,55.19,20.12,19,46.78,33.23,81.33,41.74,3.66.9,7.68,1.25,11.52,1.85l.64-1a71.63,71.63,0,0,0-7.38-2.63c-34.37-8.48-61.23-22.47-82-41.06-14.88-13.35-26.42-27.81-38-42.26-13.81-17.3-27.54-34.62-46-50.34-.85-.72-.74-1.85-1.07-2.78h897.05V1874.44H886.06c.53-6.32,1.2-12.63,1.57-19,2.07-35.66-8.43-70-30.16-103-11.51-17.54-28.54-32.4-54.54-43.17-8.58-3.56-16.56-7.65-25-11.38a59.51,59.51,0,0,0-7.16-2.14,14.88,14.88,0,0,0,5.15,3.71c11.44,5.32,23.51,10.19,34.3,16,16.36,8.76,28.64,19.55,37.44,31.69,21.77,30,33.61,61.5,34.5,94.33.3,11-1.53,22-2.38,33H109.34V1402c18.85,5.9,37.61,11.85,58.63,14.59,21.52,2.82,43.24,4.52,65.16,5.39q18.65.73,37.35,1c13,.23,18.45-2.51,19.93-9.58l-.06-.05c2.66.19,5.64,0,7.94.64,14.09,4,27.66,8.82,42.09,12.28,19,4.56,38.74,8,58,12.18,8.17,1.79,17.08,3.47,23.51,6.75s13.34,5.42,21,7.49c47.49,12.89,85.92,32.72,115.92,58.46a543.07,543.07,0,0,1,60.52,60.93c.72.85,2.57,1.35,3.89,2,.24,1.15,0,2.44.78,3.43,3.76,4.77,7.71,9.5,11.8,14.17.62.7,2.35,1,3.56,1.55-.11.68-.71,1.52-.28,2,5.43,6.15,11,12.25,16.56,18.37l1.79-.17c0-.94.55-2.06-.09-2.79-3.91-4.45-8-8.86-12.26-13.17-1.56-1.57-3.95-2.82-6-4.22-.26-1.57.23-3.38-.9-4.68-3.81-4.38-8.15-8.6-12.39-12.85a15.13,15.13,0,0,0-2.68-1.64c.08-.6.56-1.32.19-1.79-3.44-4.51-6.68-9.09-10.66-13.42-8.61-9.37-17.32-18.72-26.55-27.87-14.21-14.09-28.63-28.11-48.38-39.72-5-3-10.79-5.68-14.36-9.21-3.27-3.22-7.84-5-12.33-7.18-20.06-9.63-40.92-18.49-64.29-25,2.74-1.56,5.07-3.82,8.3-4.52a109.93,109.93,0,0,1,17.72-2c5-.24,9.38-1,13.36-2.82a40,40,0,0,1,6.84-2.45c3.22-.83,6.57-.31,8.2,1.47.8.86.06,2.8-1.12,3.7-5.92,4.58-1.84,10.2,6.84,11.33a115.45,115.45,0,0,0,14.1.55c11.06,0,19.75-2.58,25-8.79,2-2.37,3.68-2.46,6.71-.54a13.17,13.17,0,0,1,2.25,2c4.88,4.84,12.41,7.21,21.28,7.6,7.64.34,15.38-.07,23.07-.26,5.45-.13,9.32,1.07,12,4.07,1.11,1.25,3.29,2.15,5.35,3.43,1.87-2.5-.46-5.64,5.37-5.85-.06,4.79-.2,9.58-.15,14.37.12,11.21.37,22.42.48,33.63.08,8.32,0,16.65.07,25a2.19,2.19,0,0,0,1.37,1.69,5.48,5.48,0,0,0,2.68-.49,11.18,11.18,0,0,0,2.12-1.37l4.35-.07,4.32,0c6.85-2.3,13.75-4.56,20.56-6.9,20.33-7,39.61-14.93,56.8-24.58,17-9.52,30.36-20.52,35.78-34.53q2.9-7.48,5.75-15a11.09,11.09,0,0,1,2.43.59c5.75,3.17,5.74,3.19,12.08.44.6-.26,1.1-.62,1.73-.86,2.72-1,4.75-.85,5.69,1.24s1.8,4,2.83,6c.93,1.79,3,2.53,6.11,2.3,4.69-.35,9.45-.41,14.06-.94,1.73-.21,4.52-1.44,4.48-2.14-.31-4.72,4.09-7.67,9.19-10.6,6.62-3.81,12.64-3.89,19.38-.11,2.27,1.28,4.91,2.3,7.38,3.44-5.72,2.47-11.5,4.87-17.12,7.41-8.15,3.69-16.48,7.27-24.15,11.31-5.52,2.91-10.09,6.5-15.08,9.78-4.92-1.16-10-2.17-14.72-3.53-2.9-.83-5.65-1-6.57.86-.52,1,1.27,2.67,2.58,3.79.72.61,2.56.9,4,1,4,.31,7.94.46,11.91.67a8.18,8.18,0,0,0-1.15,1.12c-7.53,11-12.06,22.6-13.53,34.45-2,15.86-3,31.76-3.81,47.65-.64,12.16,8.23,19.28,27.28,22.92a86.46,86.46,0,0,0,9.07,1.3,742.49,742.49,0,0,0,88.41,2.24c20-.66,39.93-1.86,59.89-2.81a244.42,244.42,0,0,0,84.08-16.53c18.52-7.15,35.8-15.52,53.26-23.64,42.29-19.67,79.12-42.51,106.06-70.66,19.73-20.61,42.6-39.85,66.3-58.75,15.86-12.65,32.57-24.91,48.13-37.7,23.17-19,40.48-40.15,57.3-61.42,17.51-22.15,33.84-44.59,47.34-67.77,16.86-28.95,29.12-58.6,35.51-89.08,4.47-21.34,8.67-42.71,12.18-64.12,4.32-26.28,7.78-52.61,11.68-78.91a126.28,126.28,0,0,1,2.57-12.9c.18-.67,2.17-1.62,3.41-1.68,6.81-.32,13.73-.1,20.46-.67a126.53,126.53,0,0,0,18.79-2.92c7.3-1.77,7.09-2.7,1.2-6.13-10.52-6.13-20.77-12.42-31.33-18.52-5.08-2.94-7.4-6.19-5-10.37q9.18-11.68,18.38-23.36c7.24-.68,13.69-2.22,18-6.11-3.45-5.22-3.42-5.89.65-8.63,3.15-2.13,4.78-4.51,4.53-7.48-.17-2-.26-4.35,1.22-6,1.71-1.91,5-4.41,7.94-4.6a258,258,0,0,1,26.38.06c3.4.13,6.61.34,7.86-1.75,1.12-1.86,1.2-4,1.32-6,.16-2.61-1.38-5.52,0-7.77,3.93-6.15,1.8-12.06-.57-17.92-1.49-3.66-4.84-7-7.06-10.59-2.6-4.2-7.87-6.41-15.38-6.17l-8.47-2.83c-4.23-.76-8.39-1.91-12.7-2.22-36.31-2.6-72.68-4.42-109.3-4.32-46.51.12-93-.2-139.52-.29-12.57,0-24.87,1-36.46,4.18a78.53,78.53,0,0,0-36.38,21.15c-.69.79-1.45,1.56-2.06,2.36-7.46,9.83-15.17,19.6-22.25,29.53-6.42,9-13,18-17.95,27.34-4.85,9.17-7.43,18.77-11.55,28.09a46,46,0,0,0-3.65,23.35,15.49,15.49,0,0,1,0,5.68c-.69,2.48,1,4.07,4.48,4.57,3.84.56,4.27,2.09,4.57,3.9,1.8,11.2,6.23,22.05,11.73,32.76,4.74,9.2,9.61,18.38,14.42,27.57,1.24,2.87,2.11,5.83,3.78,8.61,11.9,19.84,24,39.64,35.92,59.48,1.1,1.82,2.23,3.9,1.85,5.75-1.64,8-3.76,15.92-5.92,23.85-.23.85-1.57,1.86-2.85,2.28-6.79,2.22-13.77,4.23-20.6,6.41-15.5,4.94-30.61,10.38-46.5,14.8a204.49,204.49,0,0,1-77.82,6.09c-14.82-1.64-17.65-6.42-8.58-13.69,2.29-1.83,4.68-3.63,7.39-5.73l-23.25-1.38c.47-.85,1-1.7,1.39-2.56,2.08-4.07.52-7.28-4.81-10a6.83,6.83,0,0,0-1.56-.38c-17.35.07-34.69.1-52,.29-10.84.12-19.57,3.42-27.27,7.66-7.32,4-6.17,10.8,1.88,14l3.26,1.3a109.48,109.48,0,0,1-32.46,9.68c-12.54,1.8-24.61,1.51-36-2.89-12.91-5-22.87-11.2-24.84-21,.16-.17.13-.33-.09-.47l.12-3.87a.35.35,0,0,0,.11-.51c1.27-5.18,4.54-9.88,9.18-14.26,8.37-7.92,19.84-13.85,32.56-19,3.27-1.33,6.29-2.88,10-4.6-4.17-1.54-6.7-.14-8.9.9-8.56,4-17.24,8-25.27,12.45a75.31,75.31,0,0,0-14.38,9.92c-12.88,11.77-11.28,26.32,3.87,36a62.72,62.72,0,0,0,13.86,6.23,106.8,106.8,0,0,0,15.39,3.36c15,2.5,28.77-.66,42.28-3.88,12.59-3,25.06-6.09,38.6-7,18.79-1.28,37.3-3.17,54.21-8.76l14.6.82c-1.7,1.52-3.13,2.75-4.45,4-8.13,7.78-4.31,13.55,10.39,15.75a14.79,14.79,0,0,0,1.76.19c8.13.34,16.3,1.13,24.4.91,14-.4,28-1.43,42.59-2.23.32.56,1,1.74,1.67,2.92a97.08,97.08,0,0,0,5.51,9.13c3.53,4.75,9,6.13,17.11,4.44,5.46-1.15,10.87-2.41,16.16-3.81,10.57-2.81,19.28-6.92,25.37-13.09,15.91-16.11,29.37-32.6,28.25-52.19-.32-5.42-1.28-10.63-4.56-15.62-8-12.15-16.45-24.19-24.12-36.41-5.39-8.59-9.79-17.41-14.63-26.13-.94-2-1.8-4-2.83-5.94-8.15-15.46-16.46-30.89-20.75-47a45.75,45.75,0,0,1-.83-6.38h41.3c3.63.25,7.29.42,10.9.77,14.2,1.37,28.81,1.92,42.48,4.39,26.12,4.73,51.76,10.45,77.48,16,17.75,3.81,35.81,5.58,54.2,2.77,12.47-1.91,24.64-4.63,36.75-7.31,9.44-2.09,16.86-5.89,22.42-11.09,4.59-4.29,15.38-5.26,21.64-1.91a5.41,5.41,0,0,1,2.74,4.25c.12,2.6-.74,5.21-1.11,7.83-1.59,11.35-2.91,22.72-4.78,34.06-3.56,21.68-7.23,43.36-11.24,65-4.14,22.45-6.88,45-13.18,67.31a282.51,282.51,0,0,1-27.22,65.29c-18.45,31.94-42.53,62.35-68.11,92.35-21.27,24.94-45.53,48.72-76.17,69.87a476,476,0,0,0-76.44,65.25c-19.38,20.56-42,39.42-72.88,54.24-28.43,13.68-56.57,27.6-85.4,41a159.59,159.59,0,0,1-53.69,14.26c-9.38.82-18.72,1.83-28.08,2.75-.73,0-1.48-.06-2.21,0-30.64,1.92-61.37,2.23-92.12,1.46-18.24-.45-36.53-.73-54.66-1.92-21-1.37-30.83-8.56-30-21.38,1.13-16.9,3-33.78,4.46-50.67A45,45,0,0,1,786.92,1483c14.68-15.14,36.19-25.8,61.44-33.63,26.42-8.18,55-12.33,84.23-14.81,15.42-1.32,30.89-2.43,46.34-3.63l1.16-.12,12.52-.63.19.1.21-.11,40.19-1.17h2.11l-1.41-.92a33,33,0,0,0-5.2-2.33c-7.4-2-14.84-4-22.42-5.75-13.22-3-26.55-5.91-39.84-8.85l-1-.3-4.39-.79-1-.3-43.24-7.36-1.36-.3-18.67-2.3-5.4-.56-7.16-4.36c-.5-.74-1-1.49-1.51-2.23l-19-27.66c7.74.63,15.48,1.22,23.21,1.91,8.59.76,17.16,1.61,25.73,2.42a796.35,796.35,0,0,0,101,13.61c33.84,2.24,67.76,3.36,101.79,2.7,10.34-.2,20.65-1.08,31-1.65,19.28-1,36.68-4.79,50.91-13,2.07-1.2,2.89-3.2,4.29-4.84.37-.9.74-1.81,1.1-2.71l-12.66-22.28c.23-16.77-7.11-32.19-22.3-46.21q-7.27-6.72-19.56-9.74h0l-.78-.56c-4.47-1.54-9.06-3-13.39-4.65-6.53-2.52-13.52-2.25-20.53-1.38-1.6.2-2.84,1.46-4.25,2.24l-1.2.06a58.48,58.48,0,0,0-7.59,1c-7.31,1.91-14.48,4-21.69,6.06-1.93,0-3.87.12-5.78,0a115.8,115.8,0,0,1-36.89-8.8c-22.4-9.09-46.12-10.31-71-5.15-21.46,4.45-42.67,9.32-64,14q-49.44,10.71-98.92,21.35l-.91.34,0,0-38.2,11.56c-5.15,1.56-10.06,3.76-15.51,4.54-16.61,2.37-31.4,0-43.69-7.51a141.87,141.87,0,0,0-47.55-18.52,13,13,0,0,1-2.23-.84c3.89-.33,7.78-.79,11.69-1,3.09-.14,6.23.14,9.34.14a536.5,536.5,0,0,0,123-14c30.38-7.2,57.88-17,79.42-32.38,13.15-9.37,21.11-20.16,25.52-32q3.06-6.55,6.11-13.09c.09,0,.23-.07.24-.11a1,1,0,0,0,0-.34c.12-.74.23-1.49.34-2.23-2-.55-3.9-1.51-5.91-1.59-17.17-.64-34.37-1.71-51.53-1.55q-53.85.54-107.66,2.26c-16.1.5-32.15,2-48.13,3.42-17.13,1.54-32.76,6-48.79,9.79-25.32,6-49.31,13.36-70.89,23.38-12.84,6-24.9,12.53-37.31,18.82L509.6,1270.5l13.78,4.91c.18,1.28.35,2.56.52,3.76h13.44l5.57,1.69c-9,3.15-18.24,5.72-28.81,6l-2.17-1.64c-1.91-1.6-4.23-1.89-7.37-1.26-9.7,1.93-19.52,3.65-29.22,5.58-2.92.58-4.46.24-4.92-1.63,1.54-1.64,3.18-3.24,4.6-4.91,6-7,11.88-14.06,17.82-21.09q7.11-6.27,14.23-12.53c14.81-8.87,28.24-18.33,35.63-30.42,1.16-.67,2.39-1.31,3.49-2q9.7-6.32,19.36-12.67,22.14-12.36,44.27-24.72c13.2-7.34,25.39-15.56,43.66-18.49,2.85-.46,5.58-1.21,8.33-1.87,16.11-3.88,32.51-7.4,46.75-13.63,7.64-3.33,14.53-7.13,18.81-12.39l20.52-24.94c6.25-5.1,13.65-9.83,18.48-15.38,7.5-8.63,13.31-17.81,19.7-26.8a53.16,53.16,0,0,0,3.36-6.3,6.06,6.06,0,0,0,1.32-1.06c9.66-14.61,21.88-28.6,27.66-44.16a167.8,167.8,0,0,1,12.69-27.29c5.39-9.14,12.63-17.87,19-26.8,26.18-36.68,49.34-74.05,66.65-112.67,5.26-11.72,9.13-23.68,13.64-35.53,2.73-11.06,6-22.08,8-33.18,1.19-6.67-3.26-12.78-11.47-17.25a100.69,100.69,0,0,0-19.72-8.14c-11.19-3.25-23-5.72-34.58-8.49a31.12,31.12,0,0,0-3.72-.41l-.61.79a44.62,44.62,0,0,0,5.11,2c11.06,2.8,22.47,5.16,33.21,8.35,19.08,5.67,28.11,15.22,25.92,28.2-1.55,9.25-3.88,18.44-5.86,27.65-2.26,6.08-4.22,12.2-6.82,18.22-5.55,12.83-10,25.92-17.44,38.35-19,31.81-39.32,63.31-59.11,94.93l-4.49,0Q844.41,943.1,850,923c3-8.81,6.48-17.59,9-26.46,2.59-9.08,3.89-18.29,1.56-27.49-4-15.76-17.4-29.11-30-42.65a6.71,6.71,0,0,0-.94-2c-5.93-6.67-12.07-13.28-17.88-20-10.05-11.63-23.2-21.78-39-30.66l-5.37-6.44c-2.25,3-4.12,5.2-5.69,7.52-21.41,31.69-43.2,63.29-64,95.12-15.29,23.38-24.33,47.58-20.66,73-3.15,9.66-1.29,19.19,1.71,28.72,4.18,13.26,8.18,26.54,12.26,39.82-.06,1.16-.13,2.33-.16,3.5l-.93,38.3c-1.47-.9-3.71-1.65-4.25-2.72-2.31-4.55-4.12-9.19-6.11-13.8-1.53-3.55-3.71-7-2.19-10.83.37-.92-.23-2-.4-3.1-8.14,2.11-13.19,5.16-15.51,9.6-1.88,3.61-3.07,7.34-5,10.94a8.83,8.83,0,0,1-4,3.24c-2.67,1.2-6,1.84-8.71,3-7.83,3.47-8,5.52-2.38,10.27a15.73,15.73,0,0,1,4.73,6.14c1.4,3.69-2,6.48-5.82,9.17-1.88,1.32-3.5,3.21-3.68,4.9-.57,5.32-3.7,7.34-12.74,7.36q3-8.19,5.93-16.38c5.63-.76,6.58-3.92,2.1-7-.05-1.45-.11-2.89-.16-4.33q1.17-4.87,2.33-9.76c4.15-1.51,4.24-2.21.54-3.83.64-2.38,1.65-4.75,1.83-7.14.48-6.31,1.06-12.64.69-18.94a32.52,32.52,0,0,0-3.31-13A263.26,263.26,0,0,0,620,984c-11.92-18.37-28.33-35.32-45.12-52.14-12.06-12.08-25.38-23.54-43.09-32.93-33.46-17.74-72.89-29.56-111.6-42.46L409,865.43c-2.24,1-4.86,1.76-6.67,3-13.3,9-26.19,18.21-39.69,27.08-25.67,16.88-47,35.54-63.34,56.28a50,50,0,0,0-3.65,4c-16.65,22.84-21.31,46.61-12.68,71,10,28.35,25.83,55.59,45.68,81.94,15.12,20.08,32.32,39.47,53.59,57.42,5.09,4.29,10.95,8.25,16.45,12.36a6.12,6.12,0,0,0,1.08,1.43q12.12,9.22,24.32,18.42c3.29,2.63,6.64,5.24,9.86,7.91,5.9,4.88,13.46,8.31,23.08,10,3.62,4.63,6.95,9.35,11,13.85,2.61,2.93,3.64,5.77,2.06,9,.11.76.23,1.52.35,2.28-.06.05-.19.12-.17.15a1.63,1.63,0,0,0,.27.33q0,8.88-.07,17.77c-.08.06-.25.12-.24.18a1.45,1.45,0,0,0,.12.44c-.15.91-.29,1.83-.43,2.74q-1.75,4.9-3.5,9.82c-2.63,4-5,8.07-7.93,12-3.2,4.36-6.82,8.6-10.25,12.88l-10.1,5.49-4.12,1.57-2.69.24-5,3.2h-.08c-1.44.59-3,1.1-4.31,1.78a108.67,108.67,0,0,0-28.59,21.65c-2.23,2.31-4.4,4.64-7.07,7.45-2.14-3-4.09-5.55-5.7-8.14-6-9.64-7.63-19.82-10-29.91a44.59,44.59,0,0,0,6.19-1.41c2.56-1,5.91-2,6.92-3.54,2.07-3.12,3.86-6.57,3.88-9.89,0-5.85-1.19-11.71-2.21-17.54-1.77-10-4-20-5.66-30.1a45,45,0,0,0-11-23q-21.22-24-52-43.83c-36.05-23.29-78.64-41.16-125.07-55.83-3-.94-6.17-1.62-9.78-2.56v23.12c-1.22,1.53-3.06,3-3.57,4.61-3.76,11.89-2.38,23.74,1.2,35.55,7.27,24,23.71,45.69,45.27,66,8.15,7.69,19.3,13.41,33.63,16.61l1,.38,6,2.31c3.23,2.11,6.49,4.2,9.68,6.33,24,16,52.22,27.74,87.69,32.14l.95.53c.3.89.64,1.77.87,2.66,3.23,12.33,7,24.57,15.68,36a15.92,15.92,0,0,1,3.18,11.63c-.58,6.4-.7,12.81-1,19.22,0,.18,0,.37,0,.55,1,3.62,1.1,7.48,3.26,10.83,12.19,18.91,24.89,37.7,37.4,56.54.57.86,1,1.77,1.72,3.14-2.56-.59-4.18-1-5.82-1.35-11.51-2.63-22.87-5.56-34.57-7.81-27.45-5.28-55.15-10.11-80.12-19.17-2.89-1-5.14-2.75-7.69-4.15.81-4.16,2.83-8.31,0-12.46-4-11.23-12.79-20.85-27.25-28.21a263.54,263.54,0,0,0-28.84-12.64c-34.62-12.65-69.62-24.92-104.38-37.42C126.93,1315.06,118.21,1311.46,109.33,1308Zm120.43,305.17c8,3.9,16.2,7.62,23.84,11.75a208.09,208.09,0,0,0,47.22,18.11c38.92,10,80.25,13.39,121.78,15.65,24.51,1.34,49.23,1.23,73.85,1.75,1.77,0,3.55-.11,5.32-.17a18.53,18.53,0,0,0,2.74.66q21.12,1.61,42.25,3.14c7.28.54,12.7-1.12,16.12-5.1a42.49,42.49,0,0,0,3-4.49c4.1-1.74,5.42-4.12,4.38-7,.23-.14.23-.28,0-.42l7.17,1.36c16.25,3.14,32.29,6.74,48.77,9.32,27.86,4.35,56,7.89,83.94,12.14a62.37,62.37,0,0,1,17.17,5.34c11.93,5.8,23.11,12.17,34.76,18.2,1.87,1,4.58,1.34,6.91,2l.84-.72a20.91,20.91,0,0,0-3.29-2.24,300.8,300.8,0,0,1-89-61.13c-5.19-5.16-10.18-10.4-15.36-15.56-2-2-2.34-1.94-5-.16l53.83,52.08c-2.27-.2-3.44-.26-4.58-.41-11.44-1.53-22.91-3-34.31-4.62-28.47-4-56.53-8.93-84-15.13-6-1.35-9.71-3.58-12.17-7.27-3.33-5-7.82-9.7-11.81-14.52-1.25-1.92-2-4-3.82-5.71-17.78-16-42.86-25.21-74.1-27.21-19.1-1.23-38.53-.58-57.81-.83-35.48-.46-71-.51-106.42-1.6-26.35-.81-52.58-3-78.86-4.57-10.47-.62-21-1.16-31.42-1.73l-1.63,0-.93-.19c-10.11-.17-20.24-.53-30.34-.42-5.08,0-5.51,1.1-2.42,3.64,1,1.52,1.41,3.33,3.05,4.51,8.76,6.33,19.47,11.31,31.11,15.51C216.8,1609.34,223.37,1611.18,229.76,1613.19Z" transform="translate(-109.33 -604.22)"/><path class="cls-2" d="M109.33,1355.27v-29.33a36.19,36.19,0,0,1,3.73,1.44c18.79,9.95,40.27,17,63.34,22.58,30.7,7.4,60.33,16.13,85.61,29.35,10.2,5.33,19.53,11.31,28.76,17.29,4.89,3.16,4.55,7.39.23,10.79-3.31-1.07-6.81-2-10.06-3.26a421.3,421.3,0,0,0-53.68-16.22c-20.35-4.67-41.09-8.69-61.46-13.33-17.42-4-33.81-9.16-47.83-16.84C115.7,1356.5,112.24,1356.07,109.33,1355.27Z" transform="translate(-109.33 -604.22)"/><path class="cls-3" d="M290.41,1413.4c-1.48,7.07-7,9.81-19.93,9.58q-18.69-.32-37.35-1c-21.92-.87-43.64-2.57-65.16-5.39-21-2.74-39.78-8.69-58.64-14.59v-20.63c5,1.33,9.85,2.82,14.93,4,37.57,8.58,75.24,17,112.75,25.66C254.53,1415,272.12,1416.6,290.41,1413.4Z" transform="translate(-109.33 -604.22)"/><path class="cls-2" d="M109.33,1378.62V1358a53.33,53.33,0,0,1,5.64,2.16c16.11,8.4,34.75,14,54.49,18.43,23.2,5.15,46.87,9.61,69.59,15.45,15.32,3.93,29.37,9.72,43.92,14.75,1,.33,1.89,1.3,1.8,1.92-.07.45-1.82,1.15-2.83,1.16-7.05,0-14.49.77-21.08-.33-19.11-3.16-38-6.9-56.74-10.75Q170.9,1394,138,1386.54C128.22,1384.31,118.88,1381.28,109.33,1378.62Z" transform="translate(-109.33 -604.22)"/><path class="cls-4" d="M109.33,1308c8.88,3.44,17.6,7,26.65,10.29,34.76,12.51,69.75,24.78,104.38,37.43a262.53,262.53,0,0,1,28.83,12.64c14.47,7.35,23.25,17,27.26,28.2a8.93,8.93,0,0,1-2.12-.82c-13.56-11.07-30.55-19.85-49.1-27.65-22.9-9.62-48.28-16.09-74.08-22.12-19.75-4.62-38.69-10.14-53.75-19.61-2.31-1.46-5.36-2.47-8.07-3.69Z" transform="translate(-109.33 -604.22)"/><path class="cls-5" d="M109.33,1322.69c2.71,1.22,5.76,2.23,8.07,3.69,15.06,9.47,34,15,53.75,19.61,25.8,6,51.18,12.5,74.08,22.12,18.55,7.8,35.54,16.58,49.1,27.64a8.52,8.52,0,0,0,2.12.83c2.85,4.15.83,8.31,0,12.47l-6.12,4.3.06.05c-18.29,3.2-35.88,1.63-53.39-2.42-37.52-8.67-75.19-17.08-112.76-25.66-5.08-1.16-10-2.65-14.92-4v-2.72c9.55,2.66,18.88,5.68,28.69,7.91q32.83,7.47,66.09,14.25c18.77,3.85,37.63,7.59,56.74,10.75,6.59,1.1,14,.36,21.08.33,1,0,2.76-.71,2.83-1.17.09-.61-.84-1.58-1.8-1.91-14.55-5-28.6-10.82-43.92-14.75-22.72-5.84-46.39-10.3-69.59-15.45-19.74-4.39-38.38-10-54.49-18.43a56.34,56.34,0,0,0-5.63-2.17v-2.71c2.9.8,6.36,1.23,8.63,2.47,14,7.68,30.41,12.86,47.83,16.84,20.37,4.64,41.11,8.66,61.46,13.33a421.3,421.3,0,0,1,53.68,16.22c3.25,1.22,6.75,2.19,10.06,3.26,4.32-3.4,4.66-7.63-.23-10.79-9.23-6-18.57-12-28.76-17.29-25.28-13.22-54.91-22-85.61-29.35-23.07-5.55-44.55-12.63-63.34-22.58a36.19,36.19,0,0,0-3.73-1.44Z" transform="translate(-109.33 -604.22)"/><path class="cls-6" d="M879.82,1874.44c.85-11,2.68-22,2.38-33-.9-32.83-12.73-64.29-34.5-94.33-8.8-12.14-21.08-22.93-37.44-31.68-10.79-5.78-22.87-10.65-34.3-16a14.79,14.79,0,0,1-5.15-3.71,59.51,59.51,0,0,1,7.16,2.14c8.4,3.73,16.38,7.82,25,11.38,26,10.77,43,25.63,54.54,43.17,21.72,33.09,32.23,67.39,30.16,103-.37,6.32-1,12.63-1.57,19Z" transform="translate(-109.33 -604.22)"/><path class="cls-7" d="M687.2,604.22c.33.93.22,2.06,1.06,2.78,18.49,15.72,32.22,33,46,50.34,11.55,14.45,23.09,28.91,38,42.26,20.72,18.59,47.57,32.58,82,41.06a71.63,71.63,0,0,1,7.38,2.63l-.64,1c-3.85-.6-7.87-.95-11.52-1.85-34.56-8.51-61.21-22.7-81.33-41.74-18.66-17.67-34-36.4-49.21-55.19-11.28-14-23.26-27.65-38.22-40.31a3.63,3.63,0,0,1-.61-1Z" transform="translate(-109.33 -604.22)"/><path class="cls-8" d="M433.94,1304.71l4.12-1.57c3.16.85,6,1.27,8.78-.72a67.4,67.4,0,0,1,7.26-4l23.54-4c14.81-1.27,29.27-4.63,44.61-2.78,4.56.21,9.13.47,13.7.63,29.93,1,60.14-.17,89.68,4.08l4,.68c1.57.26,3.13.53,4.71.78,27.66,4.31,51.67,12.38,70.81,25.48,4.1,2.81,9.4,4.43,15.39,5,7,.7,14.09,1.08,21.12,1.69,8.92.78,17.83,1.66,26.75,2.5l1.08.18.24.09c.08,3,2.3,5.44,6.08,7.37,16.64,8.51,36.14,13.56,56.73,17.21,5.33.95,10.88,1.42,16.32,2.11,8.82,4.22,13.62,10,17.71,16.19,4.56,6.9,9.76,13.65,14.68,20.47,2.82,1.77,5.54,3.66,10.25,3.12l5.4.56-2.22,2.05,38,5.49.15.12.13-.09q37.65,8.13,75.28,16.26a44,44,0,0,1,5.19,1.51c.24.08-.14.82-.23,1.25l-.16-.1-.18.11c-5.87.35-11.75.65-17.61,1.08-11.41.83-22.81,1.74-34.22,2.62l-1.78.1-21.46,1.8-1.36.27c-13.84,1.38-27.74,2.57-41.51,4.19-18.67,2.2-36.16,6.58-53.37,11.38-2.47-1.14-5.11-2.17-7.38-3.44-6.74-3.79-12.76-3.7-19.39.11-5.09,2.93-9.49,5.88-9.19,10.59.05.71-2.74,1.94-4.47,2.14-4.61.54-9.38.6-14.06.94-3.14.24-5.18-.5-6.11-2.29-1-2-1.93-4-2.83-6s-3-2.27-5.7-1.23c-.62.24-1.12.6-1.72.86-6.34,2.74-6.33,2.73-12.08-.44a11.24,11.24,0,0,0-2.43-.59c.1-.72.26-1.44.3-2.16,1.34-22.33-.4-44.61-3.48-66.85-.33-2.37-1.37-4.7-2.35-7.94-5.36,3.46-9.89,6.17-14,9.09-21.4,15.16-42.88,30.25-68.06,43.2-7.35,3.78-14.32,7.83-21.47,11.76-6,3.91-12.58,7.59-17.9,11.83-3.35,2.67-4.84,6.2-7.16,9.35-5.84.21-3.5,3.35-5.38,5.85-2-1.28-4.23-2.18-5.34-3.43-2.65-3-6.52-4.21-12-4.07-7.69.19-15.43.59-23.07.26-8.87-.4-16.4-2.77-21.28-7.6a13.66,13.66,0,0,0-2.25-2c-3-1.91-4.71-1.82-6.72.54-5.28,6.22-14,8.8-25,8.79a111.58,111.58,0,0,1-14.1-.55c-8.68-1.12-12.77-6.75-6.84-11.32,1.18-.91,1.92-2.84,1.12-3.71-1.63-1.77-5-2.29-8.2-1.47a38.88,38.88,0,0,0-6.84,2.46c-4,1.87-8.35,2.58-13.36,2.82a108.81,108.81,0,0,0-17.72,2c-3.24.71-5.56,3-8.3,4.52-8.61-1.15-14.77-3.88-17.16-9.35a51.64,51.64,0,0,0-5.23-9.46C416,1419.4,407,1407.81,398.9,1396c-7.22-10.59-13-21.36-12.46-33.21.57-13.66,6.6-26,19.75-37,7.69-6.38,16.72-12.15,25.15-18.2C432.28,1306.66,436.05,1306.67,433.94,1304.71Z" transform="translate(-109.33 -604.22)"/><path class="cls-4" d="M457,1216.27c-9.62-1.69-17.18-5.12-23.08-10-3.22-2.67-6.57-5.28-9.86-7.92a12.21,12.21,0,0,1,2.39.53c4.65,2.23,9.2,4.55,13.89,6.76,2.44,1.15,5.11,2.12,7.68,3.18l1.07-.79c-3.39-2.3-6.85-4.55-10.18-6.88-9.41-6.61-19.4-13-28-19.93-13.11-10.63-20.93-22.73-23.32-36-1.55-8.65-2.62-17.35-4.65-26a55.21,55.21,0,0,0-14.3-26.27c-11-11.44-22.68-22.67-33.84-34.06-8.95-9.13-19.21-17.85-24.95-28-4.72-8.39-8.56-16.92-6-25.88,1-3.58,3.29-7,5.22-10.5,3.51-6.31,6.08-12.93,11-18.81,13-15.53,27.06-30.7,40.59-46.06,17-19.33,33.94-38.71,50.94-58.06,3.27-3.72,6.74-7.38,10.28-11.25,7.86,2.55,15.21,4.88,22.47,7.3,5.84,1.94,11.58,4,17.36,6l.89.51-.09,0,1.86.56,0,0c3.71,1.94,7.33,4,11.24,5.74.8.37,2.72-.18,4.13-.31l2.43.93c1.06,1.31,1.62,2.95,3.26,3.88,6.16,3.52,12.8,6.71,19,10.19,17.21,9.66,34.25,19.43,51.51,29.06,2,1.1,4.91,1.54,7.39,2.29-.28,4.46,5.28,6.57,9.86,9.08l-.07,0,.9,1.12c2.17,2.43,4.44,4.83,6.48,7.3,13.44,16.34,27.59,32.49,40,49.12,7.2,9.69,12.35,20,11.59,31l-17-7.61c-5.06,2.24-7.85,4.79-7.29,8.61.23,1.6-.71,3.35-1.68,4.91-1.93,3.11-6.48,4.52-11.06,5.92-4,1.22-4,2.22-.53,3.91,4,2,7.74,4,12.37,6.43-3.3,1.14-5.91,2.8-7.77,2.53-4.58-.67-8.81-2.22-13.3-3.45-4.78,4.44-4.79,4.44-13.13,1.89-5.15-1.57-6.76-3.88-3.15-6.55,5-3.74,3.54-7.5,2.14-11.66a23.41,23.41,0,0,0-3.5.53,13.58,13.58,0,0,1-12.81-1.94c-2.26-1.61-6-3.43-5.94-5.09.33-5.14-4.18-8.64-8.51-12.42a9,9,0,0,0-8.15-2.23c-4.31.77-9.66,1.1-11.27,4.13-2.65,5-2.68,10.11,1,15,2.27,3,4.39,3.16,8.33.79a16,16,0,0,0,1.79-1.21c3.41-2.69,7-3.33,10-1.77,4.6,2.33,4.95,4.26,1.35,7a24.21,24.21,0,0,0-2.24,2.21l9.19,2.43-7.12,5.75c1.14.41,1.92.66,2.65,1,6,2.41,7,8.12,1.63,11.06-5.15,2.83-10.52,5.53-15.95,8.17a65.22,65.22,0,0,1-8.83,3.51c-1.36.43-3.32.14-5,.18,0-1-.41-2.21.24-3.08,1.3-1.76.42-2.75-2.15-3.47a31.31,31.31,0,0,1-4.85-1.32c-3.36-1.66-7.42-3.17-9.46-5.35-3.32-3.54-5.3-4.83-11.91-4.85h-6.24c-.61-13-.79-26-2-39a152.43,152.43,0,0,0-4.67-26.23c-3.15-11.6-7.17-23.11-11.28-34.59C458.46,927,450.62,906,442.75,884.92c-.62-1.67-1-3.83-5-4.17-.17,1.69-1,3.47-.42,5,7,18,15.53,35.87,18.11,54.42,1.67,12,3,24.07,4.31,36.11.54,5,.47,10.1.92,15.14.78,8.73,2,17.44,2.59,26.17.59,8.39.69,16.8,1,25.2,0,1.18,0,2.36.11,3.53.83,9.54,2.19,19.08,2.44,28.62.43,15.92.16,31.85.18,47.77,0,.19-.05.39-.08.58a5.54,5.54,0,0,0-.92,1.74c-.62,5.94-1.17,11.87-1.73,17.81-.89,9.54-1.6,19.08-2.68,28.6-1.33,11.67-3,23.32-4.43,35-.3,2.56-1.77,3.9-6.29,3.26l-.35-.26s0,.13,0,.15a1.29,1.29,0,0,0,.33.1l6.24,4.89C457.08,1215.16,457,1215.72,457,1216.27Z" transform="translate(-109.33 -604.22)"/><path class="cls-9" d="M362.6,1300.41c-35.46-4.4-63.68-16.14-87.68-32.14-3.19-2.13-6.45-4.22-9.68-6.33,1.72.16,3.44.33,5.16.47l24.2,1.87a1.4,1.4,0,0,0-1.22-1.12c-10.71-1.49-21.41-3-32.15-4.37-.55-.07-1.35.54-2,.84l-1-.39-10.37-8.2a30.88,30.88,0,0,0-2.62-2.77c-15.57-13-29.15-26.77-39.23-41.72a103.6,103.6,0,0,1-15.46-37.34c-1.2-5.7-2.24-11.41-3.35-17.12,1.95,1.07,4.25,2,5.8,3.24q7.08,5.73,13.69,11.68c24.22,21.83,51.7,42.07,81,61.39a452.51,452.51,0,0,1,46.69,34.81c2.06,1.77,4.53,3.37,6.8,5l1.07-.42a14.13,14.13,0,0,0-2.22-3.08c-8.65-7.32-16.83-14.88-26.26-21.81-14.58-10.7-29.89-21-45.15-31.38a460.81,460.81,0,0,1-60.58-48.77c-5.32-5.09-11.12-10-16.7-15-.3-1.45-.6-2.9-.89-4.36a17.21,17.21,0,0,1,3.75.06c17.05,4.41,34.21,8.67,51,13.4,15.81,4.45,28.36,11.59,36.43,20.84,13.42,15.38,25.68,31.14,38,46.86,10.44,13.27,20.27,26.73,30.54,40,1.07,1.39,3.31,2.44,5,3.65.95-.8,1.11-1.19.93-1.5-2.58-4.51-5-9.06-7.85-13.5-15.15-23.51-34-46-53.82-68.08a124.39,124.39,0,0,0-18.61-16.46c-11.74-8.68-27.11-14.41-44.06-18.79-15.14-3.92-29.92-8.36-44.85-12.57l-5.3-1v-23.12c3.61.94,6.8,1.62,9.77,2.56,46.44,14.66,89,32.54,125.07,55.83q30.7,19.85,52,43.83a45,45,0,0,1,11,23c1.68,10,3.89,20.06,5.66,30.1,1,5.83,2.23,11.69,2.21,17.54,0,3.32-1.81,6.77-3.89,9.89-1,1.52-4.35,2.56-6.92,3.54a44.44,44.44,0,0,1-6.18,1.41l-4.19-.58c.24-1.05.85-2.12.66-3.14-.7-3.92-1.58-7.83-2.55-11.73-1.24-5-1.85-10.15-7-14.86-.63,2.61-1.19,4.9-1.68,6.93l-8.11-4.4-.42-.7c-.11.06-.32.15-.31.16.18.21.39.41.59.61,2.65,4.92,5.29,9.85,8.16,15.21-1.58-.15-3,0-3.88-.41a52.28,52.28,0,0,1-7.77-3.95c-4.76-3.2-8.37-7.25-13.92-9.73-8.26-3.71-17.76-6.39-26.8-9.43a21.17,21.17,0,0,0-4.13-.44l-.57.68c1.41.66,2.67,1.72,4.25,2,12.35,1.78,20.82,6.85,29.27,12.14,7.1,4.44,14.83,8.51,22.43,12.64C358.68,1294.27,363.08,1296.44,362.6,1300.41Z" transform="translate(-109.33 -604.22)"/><path class="cls-10" d="M1108.09,1280.93l1.2-.07c4.46,0,8.92-.09,13.37,0a34.86,34.86,0,0,1,15.95,4c12.15,6.4,17.38,15.3,23.48,23.73,9.34,12.92,17.31,26.2,25.85,39.33,2.31,3.55,4.58,7.12,7.34,11.41-3-1.11-4.81-1.77-6.61-2.49-32.88-13.31-68.41-23.21-106.1-30.21-21.86-4.06-43.93-7.67-66.83-8.9-10.31-.56-20.6-1.47-30.93-1.69-15.11-.33-30.26-.46-45.37-.16-14.19.29-28.34,1.24-42.51,1.9q-12.61.59-25.23,1.21-19.91,1-39.8,2c-9,.47-18,1.08-27,1.43-7,.27-14.14.24-21.2.34,1.63-1.11,2.94-2.55,4.94-3.27,9.26-3.36,18.72-6.51,28.07-9.77,1.49-.52,2.82-1.2,4.23-1.81l-.07,0,2.75-.56a4.64,4.64,0,0,1,1-.47q63.87-13.54,127.78-27c3.86-.81,7.95-1.22,11.94-1.82,15.52,0,31,.07,46.57,0a50.37,50.37,0,0,0,7.15-1.06c.8.19,1.64.36,2.42.59,12.36,3.67,24.66,7.41,37.07,11a58.93,58.93,0,0,0,25.51,1.32c5.31-1.78,10.67-3.5,15.9-5.36C1102.14,1283.5,1105.07,1282.16,1108.09,1280.93Z" transform="translate(-109.33 -604.22)"/><path class="cls-11" d="M903.12,1219.54c-4.41,11.9-12.37,22.69-25.53,32.06-21.53,15.34-49,25.18-79.41,32.38a535.94,535.94,0,0,1-123,14c-3.11,0-6.25-.27-9.34-.13-3.91.17-7.8.63-11.69,1-2.49-.23-5-.36-7.48-.72-5.52-.83-11-1.78-16.5-2.68l-2-1.62,10.09-2.25c-2.2-.17-3.83-.41-5.45-.41-17.06,0-34.12,0-51.18-.06a25.05,25.05,0,0,1-5-1,19.53,19.53,0,0,0-3.07-1.53c-3.69-1.15-7.48-2.2-11.22-3.28,2.79-1.27,5.29-3.1,8.43-3.71,11.68-2.26,23.6-4,35.37-6.15,41.12-7.33,82.26-14.61,123.3-22.12,19.82-3.62,39.45-7.64,59.1-11.6,26.24-5.29,52.77-10.11,77.88-17.29l29-5.35a11.73,11.73,0,0,1-.93,1.54c-11,11.44-25.45,21-42.3,29.35-17.59,8.68-37,15.54-57.34,21.57-2.8.84-5.53,1.76-8.29,2.65l.46.63c4.73-.92,9.65-1.6,14.15-2.83,7.68-2.12,15.27-4.41,22.61-6.94,28.92-10,53.81-22.65,71.73-40C897.58,1223,900.56,1221.37,903.12,1219.54ZM773.59,1277c-2,.16-3.26.19-4.45.38-14.4,2.26-28.81,4.51-43.17,6.87a47.35,47.35,0,0,0-6.4,1.94C753,1283.09,764.23,1281.12,773.59,1277ZM646.4,1290.61c3.18,1.8,54.23-1.23,62-3.67Z" transform="translate(-109.33 -604.22)"/><path class="cls-12" d="M623.79,1087.54c9,0,12.17-2,12.74-7.36.18-1.69,1.8-3.59,3.68-4.9,3.85-2.7,7.22-5.48,5.82-9.17a15.66,15.66,0,0,0-4.73-6.14c-5.65-4.75-5.45-6.81,2.38-10.28,2.69-1.19,6-1.83,8.71-3a8.8,8.8,0,0,0,4-3.24c1.92-3.6,3.11-7.34,5-10.94,2.32-4.45,7.37-7.49,15.5-9.6.18,1.12.78,2.18.41,3.1-1.52,3.81.66,7.28,2.19,10.82,2,4.61,3.8,9.26,6.11,13.81.54,1.07,2.78,1.82,4.25,2.72a38.9,38.9,0,0,1-3.3,13.48c-3.06,6.53-4.25,13.39-6.06,20.12-.2.73.76,1.56,1.19,2.35-1.43,3.15-2.94,6.28-4.27,9.45a170.11,170.11,0,0,1-24.16,41.16c-4.79,6-10.13,11.8-15.22,17.69-4.52,4.21-11.59,6.17-18.8,8.17-17.18,4.77-34.76,9.15-51.18,14.77-21.23,7.27-31.22,19.22-32.56,33.92l-.12.63c-.13.58-.27,1.16-.41,1.74-2,3.25-3.13,6.79-6,9.69-3.92,3.89-9.41,7.18-13.78,10.92s-10.25,4.25-16.53,3.66c-7.9-.75-15.89-1.83-19.76-7a2.68,2.68,0,0,1-.39-1c-1.83-7.71,3.46-14.6,11.78-19.21,16.6-9.21,32.61-18.64,46.88-29.2,10.17-7.53,20.68-14.89,28.52-23.46.7-.45,1.47-.87,2.09-1.36a172,172,0,0,0,38.12-42C612.36,1107.83,617.84,1097.63,623.79,1087.54Z" transform="translate(-109.33 -604.22)"/><path class="cls-13" d="M1543.74,857.92c7.52-.24,12.78,2,15.39,6.17,2.21,3.56,5.56,6.93,7,10.59,2.38,5.86,4.5,11.77.58,17.92-1.44,2.25.1,5.16,0,7.77-.12,2-.21,4.17-1.32,6-1.25,2.09-4.46,1.88-7.86,1.75a258.15,258.15,0,0,0-26.39-.06c-3,.19-6.22,2.69-7.93,4.6-1.49,1.66-1.4,4-1.22,6,.25,3-1.39,5.35-4.54,7.48-4.06,2.74-4.1,3.41-.65,8.63-4.29,3.89-10.74,5.43-18,6.11.77-7.17,4.77-13.77,10.6-19.86,7.3-7.62,15.27-15,23.15-22.41.68-.64,2.87-1,4.31-1,3.65.12,7.27.54,10.91.84l.26.17-.34-.13a27.17,27.17,0,0,0-2.45-2.16c-5.46-3.85-5.44-4.88.34-8.64l6.85-4.46c-7.62.39-14.06.43-20.31,1.1a68,68,0,0,1-25.07-2c-26-6.76-53.47-8.56-81.52-7.68-.59-.05-1.17-.14-1.76-.14-46.69-.39-93.35.2-140,2.1-.87-.07-1.73-.22-2.59-.21q-25.07.27-50.11.57c-1.58-.25-3.18-.45-4.73-.75-6-1.17-7.57-3-5.74-6.55,2.19-4.27,6.13-7.79,13.37-9.12,9.61-1.77,19.31-3.52,29.17-4.56,17.36-1.85,34.81-3.95,52.35-4.51,28.72-.93,57.55-1.11,86.31-.85,27.58.24,55.16,1.11,82.67,2.34,16.65.74,33.16,2.7,49.74,4.11,17.31,10.3,25.5,22.56,21.15,38,1.69-.76,3.16-1.07,3.35-1.56,1.73-4.6,5.56-9.21,2-14C1555.39,872.3,1549.46,865.14,1543.74,857.92Z" transform="translate(-109.33 -604.22)"/><path class="cls-14" d="M1480.44,964.27c-2.43,4.19-.12,7.44,5,10.38,10.55,6.1,20.81,12.39,31.32,18.52,5.9,3.43,6.11,4.36-1.19,6.13a125.43,125.43,0,0,1-18.79,2.91c-6.74.58-13.65.36-20.46.68-1.25.06-3.24,1-3.41,1.68a126.33,126.33,0,0,0-2.58,12.9c-3.89,26.3-7.35,52.63-11.67,78.91-3.52,21.41-7.72,42.78-12.19,64.12-6.38,30.48-18.64,60.13-35.5,89.08-13.5,23.18-29.84,45.62-47.34,67.77-16.82,21.27-34.14,42.39-57.3,61.42-15.56,12.79-32.28,25-48.14,37.7-23.7,18.9-46.56,38.14-66.29,58.75-26.95,28.14-63.78,51-106.07,70.66-17.46,8.12-34.74,16.49-53.25,23.64a244.42,244.42,0,0,1-84.08,16.53v-1.79c9.36-.92,18.69-1.94,28.08-2.75a159.47,159.47,0,0,0,53.68-14.26c28.84-13.35,57-27.27,85.41-41,30.83-14.82,53.49-33.68,72.87-54.24a475.7,475.7,0,0,1,76.45-65.25c30.63-21.15,54.9-44.93,76.17-69.87,25.57-30,49.65-60.41,68.11-92.36a283.13,283.13,0,0,0,27.22-65.28c6.29-22.32,9-44.86,13.18-67.31,4-21.65,7.67-43.33,11.24-65,1.87-11.34,3.19-22.71,4.78-34.07.36-2.61,1.23-5.22,1.11-7.82a5.43,5.43,0,0,0-2.74-4.25c-6.27-3.35-17-2.38-21.64,1.91-5.57,5.2-13,9-22.43,11.09-12.11,2.67-24.27,5.4-36.74,7.3-18.4,2.81-36.46,1.05-54.21-2.76-25.71-5.53-51.35-11.25-77.47-16-13.67-2.47-28.29-3-42.49-4.39-3.61-.35-7.26-.52-10.9-.77v-.87a43.54,43.54,0,0,0,4.82.19c2.08-.15,4.22-1,6.15-.8,13.44,1.26,26.87,2.57,40.22,4.13,11.44,1.34,23.06,2.48,34.06,4.71,16.79,3.4,33,7.82,49.66,11.5a220.45,220.45,0,0,0,22.2,3.49c12.47,1.43,24.37-.73,36.23-2.74,16.06-2.72,31.76-5.81,43.46-13.75,4.38-3,4.15-4.74-1.67-6.69-5-1.68-9.91-3.49-15-5.29l2-1.84c5,1.62,9.86,3.29,14.87,4.83a21,21,0,0,0,4.08.38l.32-.87-21.19-8.85.34-1.78,19.63,6.29c-3.5-3.9-7.64-7.3-11.43-10.84a18.84,18.84,0,0,0-11.07-4.92l-1-4.9c3,1.16,6.13,2.2,8.94,3.5,8.83,4.07,14.66,9.64,20.21,15.33,4.73,4.85,11.49,8.25,20,10.32,11,2.68,22.64,2.78,34.19,2.1,5.66-.33,11.18-1.65,16.81-2.53-6.49-4.12-12.61-7.58-17.89-11.45-14.69-10.77-32.4-18.85-54.65-22.65-19.18-3.27-38.63-6-58-8.9,0-.56,0-1.13,0-1.69,30.21,1.24,58.74,5.94,85.17,15.17,2.55-1.67,2.23-2.72-1.77-4.45q-29.94-13-60-25.87a27.18,27.18,0,0,0-8.11-2c-20.29-1.67-40.56-3.67-61-4.62-29.07-1.36-57.86,0-85.57,6.25q-22.71,5.16-45.56,10.09c-5.66,1.21-11.55,2-17.34,3l-.38-.7c12.77-3.38,25.6-6.67,38.3-10.14,26.59-7.27,54.26-12,83.54-11.45,23.12.4,46.18,1.89,69.28,2.79a120.56,120.56,0,0,1,47.16,11.51c14,6.54,28.25,12.93,42.52,19.27,1.71.76,4.3.78,6.48,1.14Z" transform="translate(-109.33 -604.22)"/><path class="cls-3" d="M398.66,1178.5c-5.51-4.11-11.36-8.06-16.45-12.36-21.28-18-38.48-37.34-53.6-57.42-19.84-26.34-35.66-53.58-45.68-81.93-8.63-24.41-4-48.18,12.68-71a53.78,53.78,0,0,1,3.65-4l2.84,3.31c1.34-.26,2.88-.46,4.26-.86,4.53-1.32,9-2.76,13.52-4.05,1.08-.31,3.31-.49,3.57-.22a4.14,4.14,0,0,1,1.25,3c0,.36-2.08.62-3.14,1a19.65,19.65,0,0,0-4.48,1.79,14.46,14.46,0,0,0-4.18,4.09c-.75,1.34-.4,2.9-.53,4.37h5.87c1.14.56,2.34,1.15,3.53,1.75-3.53,4.37-7,8.76-10.61,13.12-5.93,7.22-10.25,14.71-12,22.79-2.89,13.51.63,26.31,11.55,38.14,10.68,11.57,22.06,22.9,33.28,34.28,10.39,10.53,21,21,27.23,32.79,5.53,10.47,7.48,21.26,9.14,32.09A69.24,69.24,0,0,0,398,1175.73C398.64,1176.5,398.44,1177.57,398.66,1178.5Z" transform="translate(-109.33 -604.22)"/><path class="cls-15" d="M398.66,1178.5c-.22-.93,0-2-.71-2.77a69.24,69.24,0,0,1-17.58-36.57c-1.66-10.83-3.62-21.62-9.14-32.09-6.25-11.84-16.84-22.26-27.23-32.78-11.22-11.38-22.61-22.72-33.28-34.29-10.92-11.83-14.44-24.63-11.55-38.14,1.73-8.08,6.06-15.57,12-22.79,3.58-4.36,7.08-8.75,10.61-13.12a4,4,0,0,0,.59-.4c24.33-27.43,48.76-54.82,72.91-82.31,5.08-5.77,9.16-11.87,13.69-17.81l11.22-8.94c38.7,12.91,78.13,24.73,111.59,42.46,17.71,9.39,31,20.86,43.09,32.94C591.65,948.7,608.06,965.66,620,984a267.09,267.09,0,0,1,13.76,23.14,32.52,32.52,0,0,1,3.31,13c.37,6.31-.21,12.64-.69,18.95-.18,2.39-1.19,4.76-1.83,7.14l-.54,3.83q-1.17,4.88-2.33,9.76a13.8,13.8,0,0,0-2.76,2.22c-4.92,7.15-9.85,14.3-14.55,21.5Q592.56,1117,571,1150.47c-2.22,3.46-3.59,7.13-5.34,10.7-7.86,8.57-18.36,15.93-28.53,23.46-14.27,10.56-30.28,20-46.88,29.2-8.32,4.61-13.61,11.5-11.78,19.21a2.78,2.78,0,0,0,.39,1.06c3.87,5.16,11.87,6.23,19.76,7,6.28.59,12.27,0,16.53-3.66s9.86-7,13.78-10.92c2.91-2.89,4.09-6.44,6-9.69l1.57,0,6.19,2.18c-7.39,12.09-20.82,21.55-35.63,30.42l-2.69-1.09,2.67-4.51c-1.72.15-3.14.26-4.55.4-9,.9-17.7,1-24.85-3.3a7.13,7.13,0,0,0-2.21-.21c-2.14-.12-2-3.09-5.43-1.6,1.58-3.18.55-6-2.06-9-4-4.49-7.34-9.22-11-13.84.05-.55.09-1.1.14-1.66,3.76-.1,6-1.17,6.58-3.55.27-1,1.37-2,2.09-3q-.15,3.65-.32,7.27c-.71,1-1.83,2-2.06,3.08-.89,4.11,3.09,7.13,6.89,10.72l16.22-17.24c1-.52,2-1.08,3-1.57,10.87-5,16.89-13.24,30-16.78.47-.13.72-.55,1.1-.83L544.56,1175c2.07-1.45,4.78-2.71,6.1-4.37,19.07-24.05,35.53-48.78,51-73.75,11.82-19.1,25.22-37.93,29.76-58.38,1.06-4.76.42-9.65.56-14.49.76-11-4.39-21.34-11.59-31-12.37-16.63-26.52-32.78-40-49.12-2-2.47-4.31-4.87-6.48-7.3l-.9-1.12.07,0-9.88-9.21a13.19,13.19,0,0,0-2.06-2.89c-20.65-18.08-50.44-29.85-79.09-42.4l-2.43-.93-15.37-5.43,0,0-1.86-.56.08,0-.89-.51c-5.78-2-11.52-4.06-17.36-6-7.26-2.41-14.61-4.74-22.46-7.29-3.55,3.87-7,7.53-10.28,11.25-17,19.35-33.91,38.73-50.95,58.06C347.08,945,333,960.15,320,975.68c-4.92,5.88-7.49,12.5-11,18.81-1.93,3.46-4.22,6.92-5.22,10.5-2.52,9,1.32,17.49,6,25.87,5.74,10.19,16,18.91,24.95,28,11.17,11.39,22.81,22.62,33.84,34.06a55.12,55.12,0,0,1,14.3,26.27c2,8.61,3.1,17.3,4.66,26,2.38,13.3,10.2,25.4,23.32,36,8.61,7,18.59,13.32,28,19.92,3.32,2.34,6.78,4.59,10.18,6.89l-1.08.79c-2.57-1.06-5.23-2-7.68-3.18-4.69-2.21-9.23-4.53-13.89-6.76a12.1,12.1,0,0,0-2.38-.53q-12.18-9.19-24.33-18.41A5.68,5.68,0,0,1,398.66,1178.5Z" transform="translate(-109.33 -604.22)"/><path class="cls-2" d="M542.91,1280.86l-5.57-1.69-1.38-2,4.79-.92c30.7-6,61.15-12.62,92.15-18,47.74-8.3,95.87-15.77,143.81-23.64a20.14,20.14,0,0,0,4.11-1.56h0a21.25,21.25,0,0,0,3.78.18q27.42-3.86,54.79-7.84c1.13-.16,2-1,3-1.52l-1.76-.08-.9,0-3.55.52-5.42,1.05-2.62.06a1.88,1.88,0,0,1-.63,0l-2.93.47-1.83.51-1.74,0a8.62,8.62,0,0,1-.88,0l-3.58.53-1.82.51H813l-1.86.5-2.61.06a2.16,2.16,0,0,1-.68.06l-2.87.46-1.85.52-2.63.06a1.84,1.84,0,0,1-.62,0l-2.93.47a6.33,6.33,0,0,1-.87,0l-3.59.51a6.22,6.22,0,0,1-.87,0c-1.47-.35-3-.65-4.42-1.08-6.3-1.9-12.64-3.77-18.84-5.79-2.31-.75-5-1.62-6.23-2.9s-2.76-4-1.63-4.88c4-2.91,7.74-6.23,14.66-7.08,5.8-.71,12.06-1.11,17.07-2.79,5.29-1.77,10.41-1.35,15.7-1.56,2.3-.1,4.57-.36,6.86-.55h1.75c1.17.93,2.32,2,3.57,0l11.59.51h2.66a32.81,32.81,0,0,0,4.17.54q18.21.23,36.43.3c.44,0,.89-.53,1.34-.82l12.48.54,2.7,0h1.72l12.11.69c-.38,3.31-2.36,6.3-7.07,8s-9.88,2.57-14.86,3.81l-2.6,0-1.54.08-2.92.47-.91,0-3.56.53a2.32,2.32,0,0,1-.65.06l-2,.48a8.17,8.17,0,0,1-.86,0l-2.7.52-4.22.61-2,.48-3.5.57-2.73.51a4.77,4.77,0,0,1-.76,0l-1.93.5-4.21.6-2,.48,0,.13-.82.42,8.86,1.06a15.56,15.56,0,0,1-1.85.66c-44.91,10.48-90.46,19.83-136.4,28.51-55.05,10.39-110.65,19.57-166.6,28Z" transform="translate(-109.33 -604.22)"/><path class="cls-16" d="M501.77,1660.28c-1.77.06-3.55.2-5.32.17-24.62-.52-49.34-.41-73.85-1.75-41.53-2.26-82.86-5.66-121.78-15.65a208.09,208.09,0,0,1-47.22-18.11c-7.64-4.13-15.87-7.85-23.84-11.75a20.23,20.23,0,0,0-3.12-3.16A168,168,0,0,0,186.36,1590c-3.17-1.1-6.59-1.93-9.89-2.88-3.09-2.54-2.66-3.59,2.42-3.64,10.1-.11,20.22.25,30.34.42l.92.19,1.63,0a37.07,37.07,0,0,0,5.22,1.48c37.11,5.07,74.19,10.25,111.4,15.06,22.54,2.91,45.32,4.86,68.53,4.56q29.76-.39,59.55,0c13.72.18,27.45.78,41.11,1.62a141.23,141.23,0,0,1,45,9.91c7.24,3,14.4,6,21.6,9,4,4.83,8.48,9.54,11.81,14.53,2.46,3.68,6.21,5.91,12.17,7.26,27.43,6.21,55.49,11.1,84,15.14,11.4,1.62,22.87,3.09,34.31,4.61,1.14.16,2.31.22,4.58.42-18.27-17.69-36.07-34.9-53.83-52.09,2.62-1.78,3-1.81,5,.17,5.18,5.16,10.17,10.4,15.36,15.56a300.8,300.8,0,0,0,89,61.13,21.56,21.56,0,0,1,3.29,2.23l-.84.72c-2.33-.65-5-1-6.92-2-11.64-6-22.82-12.39-34.75-18.19a61.7,61.7,0,0,0-17.17-5.34c-27.89-4.26-56.09-7.8-83.94-12.15-16.48-2.57-32.53-6.17-48.77-9.31l-7.17-1.37a12.17,12.17,0,0,0-3.11-1.75c-4.94-1.21-10-2.21-15-3.37-20.4-4.74-41.16-8.64-63.25-8.56-21.49.08-42.87-.53-64.2-2.16-16.24-1.25-32.63-1.87-48.81-3.34-20.4-1.86-40.84-3.85-60.95-6.62-19.8-2.74-39.14-6.64-56.15-13.8-2.13-.9-4.83-1.57-3.77-3.83.89.17,1.62.24,2.25.43,1.19.37,2.36.77,3.47,1.22,16.77,6.81,35.43,10.87,55,13.37,19.91,2.56,39.95,4.76,60,7,11.6,1.29,23.23,2.75,35,3.29,17,.8,34.05.74,51.06,1.24,13.13.38,26.27.84,39.35,1.65a317.27,317.27,0,0,1,55.46,7.91c5.09,1.24,10.26,2.36,15.36,3.54a36.67,36.67,0,0,0-3.36-5.28c-2.79-3.17-5.26-6.56-9-9.25-13-9.24-30-14.54-49-17.64-19.6-3.19-39.78-3.37-59.83-3.7-24-.4-48.06.23-72.05-.24a414.91,414.91,0,0,1-41.7-2.95c-24.16-2.92-48-6.8-72.13-9.87-22.79-2.9-45.77-5.27-68.68-7.83a34.31,34.31,0,0,0-4.52.09c.76.86,1.19,2,2.33,2.53,9.16,4.59,18.75,8.86,27.62,13.63,13,7,25.5,14.34,38.3,21.47,2.45,1.37,5.29,2.48,8,3.71,3,1.15,5.88,2.35,8.89,3.45,12.4,4.54,24.58,9.36,38.6,11.94,29.94,5.51,60.21,10.16,91.24,12.72,9,.75,18.05,2.3,27.24.61,4.73.55,9.48,1.64,14.18,1.56,15.63-.26,31.25-.84,46.86-1.5,9.24-.38,18.45-1.08,27.66-1.74,11.09-.8,22.18-1.64,33.24-2.59,5.77-.5,12.95.32,14.57-4.88,1,2.93-.28,5.31-4.38,7-1.19,0-2.39-.06-3.56,0-10.5.89-21,1.74-31.48,2.73C521.14,1658.17,511.46,1659.26,501.77,1660.28Z" transform="translate(-109.33 -604.22)"/><path class="cls-17" d="M564.22,1625.69c-7.2-3-14.36-6-21.6-9a141.23,141.23,0,0,0-45-9.91c-13.66-.84-27.39-1.44-41.11-1.62q-29.76-.4-59.55,0c-23.21.3-46-1.65-68.53-4.56-37.21-4.81-74.29-10-111.4-15.06a36.56,36.56,0,0,1-5.21-1.48c10.47.57,21,1.11,31.42,1.73,26.28,1.55,52.51,3.76,78.86,4.57,35.43,1.09,70.94,1.14,106.42,1.6,19.28.25,38.71-.39,57.81.83,31.24,2,56.32,11.2,74.1,27.21C562.25,1621.64,563,1623.77,564.22,1625.69Z" transform="translate(-109.33 -604.22)"/><path class="cls-6" d="M366.22,1300.42l4.19.58c2.42,10.08,4.08,20.27,10,29.9,1.61,2.59,3.56,5.11,5.7,8.14,2.67-2.8,4.84-5.14,7.07-7.45A108.65,108.65,0,0,1,421.82,1310c1.32-.69,2.87-1.2,4.31-1.79l.2.45-.12-.46,5-3.19.09,2.64c-8.43,6.05-17.46,11.83-25.15,18.2-13.15,10.93-19.18,23.32-19.75,37-.5,11.85,5.24,22.62,12.46,33.21,8.06,11.82,17.06,23.41,25.44,35.16a51.56,51.56,0,0,1,5.23,9.45c2.39,5.48,8.55,8.21,17.16,9.36,23.36,6.47,44.23,15.33,64.29,25,4.49,2.16,9.06,4,12.33,7.18,3.57,3.53,9.34,6.26,14.36,9.21,19.75,11.61,34.16,25.63,48.38,39.72,9.23,9.15,17.94,18.5,26.55,27.87,4,4.33,7.21,8.91,10.66,13.42.37.47-.11,1.19-.19,1.79l.07,0c-1.32-.66-3.17-1.16-3.89-2a543.07,543.07,0,0,0-60.52-60.93c-30-25.74-68.43-45.57-115.92-58.46-7.64-2.07-14.43-4.15-21-7.49s-15.34-5-23.51-6.75c-19.25-4.2-39-7.62-58-12.18-14.44-3.46-28-8.25-42.09-12.28-2.3-.66-5.28-.45-7.94-.64l6.11-4.3c2.55,1.4,4.8,3.1,7.7,4.15,25,9,52.67,13.89,80.11,19.16,11.71,2.25,23.06,5.19,34.58,7.82l5.82,1.35c-.75-1.38-1.15-2.28-1.72-3.14-12.51-18.84-25.21-37.63-37.4-56.54-2.16-3.36-2.23-7.21-3.26-10.83l2.51-.18,0-.38h-2.5c.31-6.4.43-12.82,1-19.22a15.9,15.9,0,0,0-3.17-11.62c-8.69-11.45-12.46-23.69-15.68-36-.24-.89-.58-1.77-.87-2.66Z" transform="translate(-109.33 -604.22)"/><path class="cls-5" d="M747.89,1108.22q-10.26,12.48-20.53,25l-3.2-.64,8.48-11.29c2.39-5.69,6.43-11.18,6.71-17.39a8.18,8.18,0,0,0,1.45-1.44c3.33-5,5.75-10.28,10.06-14.92,7.07-7.59,15.08-14.88,23.19-22.09a163.24,163.24,0,0,0,26.39-29.2c4-5.77,7.9-11.55,11.49-17.41,2.14-3.48,3.7-7.12-.69-10.53,4.72-8.24,10.43-16.34,14-24.77,5.62-13.48,9.74-27.18,14.56-40.78,2.39-6.75,4.9-13.49,7.36-20.23l2.9.53q-5.6,20.09-11.2,40.17c-1.3,2.58-2.6,5.15-3.89,7.73l1.3.35,7.07-8c19.8-31.62,40.14-63.13,59.12-94.93,7.41-12.43,11.89-25.52,17.44-38.35,2.6-6,4.56-12.14,6.81-18.22l3.73.52c-4.51,11.85-8.38,23.81-13.64,35.53-17.32,38.62-40.47,76-66.65,112.67-6.37,8.93-13.61,17.66-19,26.8a168.88,168.88,0,0,0-12.68,27.28c-5.78,15.56-18,29.56-27.66,44.17a6.06,6.06,0,0,1-1.32,1.06c-1,.29-2.43.41-3,.89-11.64,10.27-24.62,20.08-31.21,32.15C752.47,1097.87,750.32,1103.07,747.89,1108.22Z" transform="translate(-109.33 -604.22)"/><path class="cls-18" d="M409,865.43c-4.53,5.94-8.61,12-13.69,17.81-24.15,27.49-48.58,54.88-72.91,82.31a4,4,0,0,1-.59.4c-1.19-.6-2.39-1.19-3.53-1.75h-5.87c.13-1.47-.23-3,.53-4.37a14.58,14.58,0,0,1,4.18-4.09,19.65,19.65,0,0,1,4.48-1.79c1.06-.38,3.11-.64,3.14-1a4.11,4.11,0,0,0-1.26-3c-.26-.27-2.48-.09-3.56.22-4.56,1.29-9,2.73-13.52,4.05-1.38.4-2.92.6-4.26.87l-2.84-3.32c16.36-20.74,37.67-39.4,63.34-56.28,13.5-8.88,26.39-18.1,39.69-27.09C404.1,867.18,406.72,866.41,409,865.43Z" transform="translate(-109.33 -604.22)"/><path class="cls-19" d="M780.82,1233.08a20.28,20.28,0,0,1-4.1,1.56c-48,7.87-96.08,15.34-143.82,23.64-31,5.39-61.45,12-92.15,18l-4.79.92,1.38,2H523.9c-.16-1.21-.34-2.48-.52-3.76a7.51,7.51,0,0,0,1.6-.88c4.79-4.82,9.56-9.64,14.24-14.49.44-.46.24-1.15.33-1.73,12.41-6.29,24.48-12.86,37.31-18.82,21.58-10,45.57-17.41,70.89-23.38,16-3.78,31.66-8.25,48.79-9.79,16-1.45,32-2.92,48.13-3.42q53.79-1.67,107.66-2.26c17.16-.17,34.36.9,51.53,1.55,2,.08,3.94,1,5.91,1.59l-3.75,1.06-12.87,0h-1.72l-2.7,0-12.48-.54-41.94,0h-2.65l-11.6-.51-3.56,0h-1.76c-18.76.52-37.57.72-56.28,1.65-15.84.8-31.58,2.39-47.34,3.73-6.1.52-12.13,1.31-18.49,2a8.71,8.71,0,0,1-2.84,1.26c-5.4.79-10.87,1.39-16.3,2.07-12.75,1.6-24.45,4.88-36,8.36-14.2,4.29-28.69,8.29-42.33,13.18-20.42,7.31-39,16.17-52.9,28.09-3.69,3.15-6.87,6.53-10.28,9.81a8,8,0,0,0,3.41,0c23.76-4.71,47.29-9.89,71.31-14,47.88-8.27,96-16.08,144.07-23.83C760.54,1234.5,770.79,1234.05,780.82,1233.08Zm-247.59,44.75-.32-.07a2.33,2.33,0,0,0,0,.28,1.14,1.14,0,0,0,.33,0S533.22,1277.89,533.23,1277.83Z" transform="translate(-109.33 -604.22)"/><path class="cls-7" d="M948.47,1584.26v1.79c-20,1-39.91,2.15-59.9,2.81a742.37,742.37,0,0,1-88.4-2.24,87,87,0,0,1-9.08-1.3c-19-3.64-27.91-10.76-27.28-22.92.83-15.89,1.86-31.79,3.82-47.65,1.46-11.85,6-23.41,13.52-34.45a8.18,8.18,0,0,1,1.15-1.12l2.84-2.81c5-3.29,9.56-6.87,15.09-9.79,7.66-4,16-7.61,24.15-11.3,5.61-2.55,11.4-4.94,17.11-7.41,17.22-4.8,34.71-9.18,53.38-11.38,13.77-1.62,27.67-2.81,41.51-4.19l1.36-.27,21.46-1.79,1.78-.11c11.4-.88,22.8-1.79,34.22-2.62,5.85-.43,11.74-.72,17.61-1.08h.34c.09-.43.46-1.16.23-1.25a45.56,45.56,0,0,0-5.2-1.51q-37.62-8.15-75.27-16.26l-.28,0-38-5.49,2.22-2.05,18.66,2.3,1.37.3,43.24,7.36,1,.3,4.39.79,1,.3c13.28,2.94,26.62,5.81,39.84,8.85,7.58,1.75,15,3.74,22.42,5.75a32.08,32.08,0,0,1,5.19,2.34l-.69.91L993,1430.2h-.4l-12.52.63-1.17.12c-15.44,1.2-30.91,2.31-46.33,3.63-29.23,2.48-57.82,6.63-84.23,14.81-25.25,7.83-46.76,18.49-61.45,33.63A45,45,0,0,0,774,1511.74c-1.45,16.89-3.32,33.77-4.46,50.67-.86,12.82,9,20,30,21.39,18.12,1.18,36.42,1.46,54.66,1.91,30.75.77,61.47.46,92.12-1.46C947,1584.2,947.73,1584.25,948.47,1584.26Z" transform="translate(-109.33 -604.22)"/><path class="cls-19" d="M850,923l-2.9-.53q1.54-8.78,3.11-17.55c.33-.59.72-1.17,1-1.77,5-11,6.75-22.25,4.41-33.65-1.5-7.35-4.22-14.47-11.39-20.67-.25-.69-.23-1.47-.78-2.07-4-4.31-7.59-8.8-12.31-12.8-5-4.23-11.32-7.84-16.58-12-6.63-5.18-12.95-10.53-19.08-15.94-9.46-8.36-21.25-15.77-27.63-25.38a3.94,3.94,0,0,0-2.24-1.33,5.17,5.17,0,0,0-2.71,1.54c-2.5,3.56-4.8,7.17-7.16,10.76l-22.37,34.11L709.45,861c-4.21,6.8-8.72,13.55-12.58,20.43-9.49,16.93-16.44,34.09-13.39,52.27a54.33,54.33,0,0,0,9.23,23.19c4.82,6.77,10,13.43,11.67,20.84l-2.71.14c-6.32-9.38-12.58-18.77-19-28.12-1.61-2.33-3.79-4.52-5.71-6.77-3.67-25.45,5.37-49.65,20.66-73,20.82-31.83,42.61-63.43,64-95.12,1.56-2.32,3.44-4.56,5.69-7.52l5.37,6.43c.42,2,.09,4.27,1.41,6.06a135.15,135.15,0,0,0,13.12,15.86c10.21,10.19,23.54,18.91,37,27.5,1.88,1.2,4.18,2.16,6.29,3.23,12.62,13.53,26,26.88,30,42.65,2.33,9.19,1,18.4-1.56,27.49C856.48,905.42,853.05,914.19,850,923Z" transform="translate(-109.33 -604.22)"/><path class="cls-14" d="M1181.26,1056.54c4.84,8.72,9.24,17.54,14.63,26.13,7.67,12.22,16.14,24.26,24.12,36.41,3.29,5,4.25,10.2,4.56,15.62,1.13,19.59-12.33,36.08-28.25,52.19-6.09,6.17-14.79,10.28-25.37,13.09-5.29,1.4-10.7,2.66-16.16,3.81-8,1.69-13.58.31-17.1-4.44a99.37,99.37,0,0,1-5.52-9.13c-.69-1.18-1.35-2.36-1.66-2.92-14.6.8-28.58,1.83-42.6,2.23-8.09.23-16.26-.57-24.4-.91a14.63,14.63,0,0,1-1.75-.19c-14.71-2.2-18.52-8-10.4-15.75,1.32-1.26,2.76-2.49,4.45-4l-14.6-.82.84-2.64,23.25,1.38c-2.72,2.1-5.1,3.9-7.4,5.73-9.06,7.27-6.23,12,8.58,13.69a204.56,204.56,0,0,0,77.83-6.09c15.88-4.42,31-9.86,46.5-14.8,6.83-2.18,13.8-4.19,20.59-6.41,1.28-.42,2.62-1.43,2.85-2.28,2.16-7.93,4.29-15.88,5.93-23.85.37-1.85-.76-3.93-1.85-5.75-11.92-19.84-24-39.64-35.93-59.48-1.67-2.78-2.53-5.74-3.77-8.61C1179.51,1058,1180.39,1057.28,1181.26,1056.54Zm25.3,107.82q-16.24,12.9-32.46,25.83c-4.38,3.5-9.87,5.08-17.08,3.93-3.42-.55-6.84-1.11-10.24-1.72-2.87-.51-5.71-1.1-9.32-1.8a44,44,0,0,0,2.5,5.39c3.08,4.76,8.33,6.52,16.19,4.92,13.5-2.76,23.8-8.66,34.84-13.81a1.17,1.17,0,0,0,.45-.46l15.73-22,.53-.82Zm-18,5.42-51.37,15.72c5.2,2.09,9.19,4.13,13.74,5.43,7.52,2.16,14.5,1.06,19.27-3,6.25-5.36,11.95-11,17.85-16.48C1188.3,1171.15,1188.24,1170.75,1188.53,1169.78Z" transform="translate(-109.33 -604.22)"/><path class="cls-20" d="M783.73,1322.83c7.07-.1,14.15-.07,21.2-.34,9-.35,18-1,27-1.43q19.9-1,39.8-2,12.62-.65,25.23-1.21c14.17-.66,28.32-1.61,42.51-1.9,15.11-.3,30.26-.17,45.37.16,10.33.22,20.62,1.13,30.93,1.69,22.9,1.23,45,4.84,66.83,8.9,37.69,7,73.22,16.9,106.1,30.21,1.8.72,3.66,1.38,6.61,2.49-2.76-4.29-5-7.86-7.34-11.41-8.54-13.13-16.51-26.41-25.85-39.33-6.1-8.43-11.33-17.33-23.48-23.73a34.86,34.86,0,0,0-15.95-4c-4.45-.12-8.91,0-13.37,0,1.41-.78,2.65-2,4.25-2.24,7-.87,14-1.14,20.52,1.38,4.34,1.67,8.93,3.11,13.4,4.65l.78.56h0a21.52,21.52,0,0,0,1.53,2.48c9.4,11.89,19,23.71,28.19,35.66,4.46,5.82,8.12,11.87,12.14,17.81l12.66,22.28-14.36-2.74a34,34,0,0,0-5.23-2.84c-13.44-4.75-26.77-9.64-40.53-14-21.06-6.68-44-10.39-66.54-14.64-8-1.51-16.08-2.85-24.13-4.27-15.73-1.49-31.4-3.26-47.2-4.41-14.67-1.07-29.46-2-44.21-2.07-15.67-.07-31.36.89-47,1.49-13.45.51-26.88,1.13-40.31,1.76-13.86.65-27.71,1.36-41.57,2-9,.45-18,1-27,1.38-8.83.42-17.67.78-26.51,1.16,0-.79,0-1.58,0-2.37Z" transform="translate(-109.33 -604.22)"/><path class="cls-16" d="M1181.26,1056.54c-.87.74-1.75,1.47-2.63,2.2-4.81-9.19-9.68-18.37-14.42-27.57-5.51-10.71-9.93-21.56-11.74-32.76-.29-1.81-.73-3.34-4.56-3.9-3.45-.5-5.18-2.09-4.48-4.57a15.71,15.71,0,0,0,0-5.68,46,46,0,0,1,3.64-23.35c4.12-9.32,6.7-18.92,11.56-28.09,4.93-9.32,11.52-18.34,17.95-27.34,7.08-9.93,14.79-19.69,22.24-29.53.62-.8,1.37-1.57,2.07-2.36l2.59,1.07c-3.44,5.13-6.8,10.28-10.37,15.38-1.45,2.06-1.78,3.94.58,5.8l.75.53c-1.36,1.15-2.82,2.26-4.08,3.46-2.69,2.56-6.15,5-7.78,7.77q-16.53,28.42-32.24,57c-1.52,2.76-1.1,5.92-1.7,9.63,7.43-1.86,5.57-7.27,12.49-8.81l-5.57,14.26c2.53,1.4,4.68.88,7.13-.15,6.3-2.68,12.76-5.22,19.15-7.81l4.74.69-5.37,4.88c-2.42.53-5.44.68-7.13,1.67a130.45,130.45,0,0,0-12.09,8.3c-3.23,2.41-1.82,5.39,2.92,6.78,5.85,1.7,13,1.39,16.8-.73s4.19-5.67,1.6-9.83c-1.12-1.8-1.44-3.79-2.12-5.69,6.35,2.29,10,5.94,8.7,10.13-1.46,4.8,1.4,7.09,8.23,8.43v.87h-41.29a44.3,44.3,0,0,0,.83,6.38c4.28,16.09,12.59,31.52,20.74,47C1179.47,1052.56,1180.32,1054.56,1181.26,1056.54Z" transform="translate(-109.33 -604.22)"/><path class="cls-7" d="M647.07,1435.64c7.15-3.92,14.12-8,21.47-11.76,25.18-13,46.66-28,68.06-43.19,4.12-2.93,8.65-5.64,14-9.1,1,3.24,2,5.57,2.35,7.94,3.08,22.25,4.82,44.52,3.49,66.85-.05.73-.2,1.44-.31,2.16q-2.86,7.49-5.75,15c-5.42,14-18.82,25-35.78,34.53-17.19,9.65-36.47,17.58-56.8,24.58-6.81,2.34-13.71,4.6-20.56,6.9-.3-1.06-.59-2.13-.88-3.19,4.21-1,8.77-1.76,12.58-3.2,13.81-5.23,27.52-10.55,41-16.11a151.38,151.38,0,0,0,33-18.48c15.94-11.89,26.08-25.31,27.53-40.78a147.24,147.24,0,0,0,0-20.58c-.69-14.92-1.65-29.82-2.56-44.73-.06-.88-.61-1.76-1.25-3.51-29.44,22.22-62.7,40.86-97.76,58.36Z" transform="translate(-109.33 -604.22)"/><path class="cls-21" d="M1480.44,964.27l-3.13-1.61c7.33-11.86,14.71-23.71,22-35.59A79.9,79.9,0,0,1,1520,904.8a30.53,30.53,0,0,0,5.43-5.25c4.82-5.95.4-10.41-10.55-10.76-4.74-.15-9.53,0-14.23-.38-13.8-1-27.57-2.2-41.34-3.39q-35.16-3-70.29-6.12c.15-1.12.3-2.24.47-3.53l11.32,1c3.85.52,7.68,1.17,11.57,1.53,17.09,1.61,34.19,3.13,51.29,4.68,12.87,1.17,25.72,2.37,38.6,3.46a22.48,22.48,0,0,0,4.67-.57,28.19,28.19,0,0,0-3.71-1.5c-17.49-4.61-36.37-4.54-54.79-6-8.21-.65-16.44-1.23-24.66-1.84l1.82-1.41c28-.88,55.49.92,81.52,7.67a67.87,67.87,0,0,0,25.08,2c6.25-.67,12.68-.71,20.3-1.1l-6.85,4.46c-5.78,3.76-5.8,4.79-.33,8.64a26.85,26.85,0,0,1,2.44,2.16l.08,0c-3.64-.3-7.26-.72-10.91-.84-1.44,0-3.63.33-4.31,1-7.88,7.41-15.85,14.79-23.15,22.41-5.83,6.09-9.83,12.69-10.6,19.86ZM1533.22,893l8-7.21-15.37,1.61Z" transform="translate(-109.33 -604.22)"/><path class="cls-6" d="M1203.51,874.66l-2.59-1.07a78.35,78.35,0,0,1,36.38-21.15c11.58-3.19,23.89-4.21,36.46-4.18,46.5.09,93,.41,139.51.29,36.63-.1,73,1.72,109.3,4.32,4.32.31,8.48,1.46,12.71,2.22-.34.68-.67,1.35-1,2-16.58-1.41-33.09-3.37-49.74-4.11-27.5-1.23-55.09-2.1-82.66-2.34-28.77-.26-57.6-.08-86.32.85-17.54.56-35,2.66-52.35,4.51-9.86,1-19.56,2.79-29.17,4.56-7.24,1.33-11.18,4.85-13.37,9.12-1.83,3.56-.23,5.37,5.75,6.54,1.54.31,3.15.51,4.72.76,0,.63,0,1.26,0,1.89-13.48.35-17-4.89-17.21-12.67Zm50.56-23.51c.27,1.28.43,2,.61,2.84l24.59-1.69c0-.38-.07-.77-.1-1.15C1271.12,850,1263,852,1254.07,851.15Z" transform="translate(-109.33 -604.22)"/><path class="cls-17" d="M677,943c1.92,2.25,4.1,4.44,5.71,6.77,6.43,9.35,12.69,18.74,19,28.12,0,.36-.21.74,0,1.06,5.57,10.58,4.42,21.49,4.13,32.34a62.41,62.41,0,0,1-1.29,8.28c-.56-5.16-6.28-7.08-13.55-8-4.08-13.27-8.08-26.55-12.26-39.81C675.66,962.18,673.8,952.64,677,943Z" transform="translate(-109.33 -604.22)"/><path class="cls-11" d="M565.63,1161.17c1.76-3.57,3.12-7.24,5.34-10.7q21.53-33.48,43.38-66.9c4.7-7.2,9.63-14.35,14.55-21.5a14.16,14.16,0,0,1,2.76-2.22c.06,1.44.11,2.88.16,4.32l-2.1,7q-3,8.19-5.93,16.38c-5.95,10.09-11.43,20.29-18,30.23a172.2,172.2,0,0,1-38.11,42C567.09,1160.3,566.32,1160.72,565.63,1161.17Z" transform="translate(-109.33 -604.22)"/><path class="cls-6" d="M724.16,1132.53l3.2.64c-4.27,5.26-11.16,9.06-18.8,12.39-14.24,6.23-30.65,9.75-46.75,13.63-2.76.66-5.48,1.41-8.33,1.87-18.27,2.92-30.46,11.15-43.66,18.49q-22.19,12.33-44.27,24.72l-2.4-1.18c6.59-3.75,13.16-7.51,19.79-11.24q19.21-10.83,38.49-21.63l.43-.48-1,.14c-19.49,2.74-38,6.88-54.1,14.32-17.28,8-27,18.51-26.63,32l-3.64.55-1.56,0c.14-.58.28-1.16.41-1.74l.12-.63c1.33-14.7,11.33-26.65,32.56-33.92,16.42-5.62,34-10,51.18-14.77,7.21-2,14.28-4,18.8-8.17l7.71.57c4.51-.32,9.29-.18,13.51-1.05C684,1152,707,1145.07,724.16,1132.53Z" transform="translate(-109.33 -604.22)"/><path class="cls-20" d="M1146.45,1384c-10.32.57-20.63,1.45-31,1.65-34,.66-68-.46-101.79-2.7a796.35,796.35,0,0,1-101-13.61c-1.5-.53-3-1.11-4.51-1.58q-34.56-10.56-69.13-21.09c-3.19-1-6.43-1.68-9.94-.56.24-1.62.49-3.25.73-4.87,1.5.37,3,.69,4.48,1.12,25.26,7.55,50.21,15.52,75.87,22.52a411.88,411.88,0,0,0,45.21,9.24c15.95,2.48,32.34,4,48.65,5.47,10.51,1,21.21,1.13,31.83,1.65,3.37.08,6.75.18,10.13.22,3.74,0,7.48,0,11.23,0l.28.1.33.12.36-.08.27.13.34-.06c17,.42,34.06,1,51.09,1.21,11.24.13,22.5-.31,33.74-.5C1145,1382.69,1148.17,1381.79,1146.45,1384Z" transform="translate(-109.33 -604.22)"/><path class="cls-16" d="M1042.05,1165.21l-.84,2.64c-16.9,5.59-35.41,7.48-54.2,8.76-13.55.92-26,4-38.6,7-13.51,3.22-27.31,6.38-42.28,3.88a107.24,107.24,0,0,1-15.4-3.36,63.15,63.15,0,0,1-13.86-6.23c-15.15-9.67-16.75-24.22-3.86-36a75.22,75.22,0,0,1,14.37-9.92c8-4.41,16.71-8.4,25.27-12.45,2.2-1,4.74-2.44,8.91-.9-3.73,1.72-6.76,3.27-10,4.6-12.72,5.16-24.18,11.09-32.56,19-4.63,4.38-7.91,9.08-9.18,14.26-.09,0-.26.1-.25.14a1.07,1.07,0,0,0,.15.37c0,1.29-.08,2.58-.13,3.87,0,0-.18.12-.16.15a2,2,0,0,0,.25.32c2,9.77,11.94,16,24.85,21,11.33,4.4,23.41,4.69,36,2.89a109.51,109.51,0,0,0,32.45-9.68l4.48-1.17a58.73,58.73,0,0,0,6,.64c21.68.15,41.56-4.21,61-9.39,7.83-2.08,8.27-7.62,1.45-10.79l-2.09-1,4.86-1.19c5.33,2.69,6.88,5.9,4.81,10C1043,1163.51,1042.51,1164.36,1042.05,1165.21Z" transform="translate(-109.33 -604.22)"/><path class="cls-16" d="M829.88,1341.25c-.24,1.62-.49,3.25-.73,4.87l-.14.2a9.5,9.5,0,0,0-1.35-.69c-18.2-6.15-37.95-9.72-58-12.83l-.24-.09-1.09-.18c-8.91-.84-17.82-1.72-26.74-2.5-7-.61-14.12-1-21.13-1.69-6-.59-11.28-2.21-15.38-5-19.14-13.1-43.15-21.17-70.81-25.48-1.58-.25-3.14-.52-4.71-.78.18-.54.37-1.07.55-1.61,5.5.9,11,1.85,16.5,2.68,2.45.37,5,.49,7.48.72a13.84,13.84,0,0,0,2.23.84,141.87,141.87,0,0,1,47.55,18.52c12.29,7.55,27.09,9.88,43.69,7.51,5.45-.78,10.36-3,15.51-4.54l38.2-11.56.13,1.8c-13.06,3.36-26.25,6.59-37.13,13.35l13.85-.84c0,.79,0,1.58,0,2.37-2.07.08-4.18,0-6.17.29a9.08,9.08,0,0,0-2.71,1.32,8.11,8.11,0,0,0,2.25,1.24c11.15,2.25,22.38,4.37,33.52,6.66C813.39,1337.52,821.61,1339.43,829.88,1341.25Z" transform="translate(-109.33 -604.22)"/><path class="cls-20" d="M801.43,1311.42l-.13-1.8,0,0,.91-.34q49.47-10.68,98.92-21.35c21.36-4.63,42.57-9.5,64-14,24.89-5.16,48.61-3.94,71,5.14A115.54,115.54,0,0,0,1073,1288c1.91.12,3.85,0,5.77,0,2.33,0,4.53,0,4.3,2a59.09,59.09,0,0,1-25.51-1.32c-12.41-3.6-24.71-7.34-37.07-11-.78-.23-1.62-.4-2.43-.59-18.24-5.93-36.1-4.64-53.71,1.07-4,.6-8.08,1-11.94,1.82q-63.93,13.46-127.78,27a4.64,4.64,0,0,0-1,.47l-2.75.56.07,0Z" transform="translate(-109.33 -604.22)"/><path class="cls-19" d="M647.07,1435.64l1.8,1.66c-1,.65-2,1.31-3.07,2q-18.74,11.57-18.31,27.82c.17,6.51,0,13,0,19.54-.38,1.85-.75,3.7-1.12,5.52h6.46c-.25,1.95-.89,3.92-.69,5.86.68,6.53,1.6,13,2.54,19.57.42,2.93,1.1,5.85,1.67,8.77.29,1.06.58,2.13.88,3.19l-4.32,0c-1.08-1.6-2.15-3.21-3.22-4.81l-1.13.22v4.66a11.18,11.18,0,0,1-2.12,1.37,5.48,5.48,0,0,1-2.68.49,2.19,2.19,0,0,1-1.37-1.69c-.09-8.32,0-16.65-.07-25-.11-11.21-.36-22.42-.48-33.63-.05-4.79.1-9.58.15-14.37,2.32-3.14,3.81-6.67,7.16-9.34C634.49,1443.23,641,1439.56,647.07,1435.64Z" transform="translate(-109.33 -604.22)"/><path class="cls-6" d="M190.48,1143.47c.29,1.45.59,2.9.89,4.36H185.9l-4.21-.28c-.32,4-1.25,8-.79,11.9a72.4,72.4,0,0,0,3.7,17.12c10.26,27.44,26.9,53.09,58,74.55,2.17,1.5,3.57,1.76,5.24-.09l10.37,8.2c-14.32-3.19-25.47-8.92-33.62-16.6-21.56-20.35-38-42-45.28-66-3.58-11.82-4.95-23.67-1.19-35.56.51-1.61,2.34-3.07,3.56-4.6l5.31,1c-1,1.2-2.06,2.37-2.89,3.6-1.3,1.94-.11,2.91,3.33,2.78C188.46,1143.76,189.47,1143.59,190.48,1143.47Z" transform="translate(-109.33 -604.22)"/><path class="cls-22" d="M906,1204.84l3.75-1.06c-.11.74-.23,1.49-.34,2.23-.2.13-.27.27-.2.44q-3,6.55-6.11,13.09c-2.56,1.83-5.54,3.49-7.62,5.5-17.93,17.32-42.82,30-71.74,40-7.34,2.53-14.93,4.82-22.61,6.94-4.5,1.23-9.42,1.91-14.15,2.83l-.46-.63c2.76-.88,5.49-1.81,8.29-2.64,20.29-6,39.75-12.89,57.34-21.58,16.85-8.31,31.3-17.91,42.3-29.35a10.69,10.69,0,0,0,.93-1.54l-29,5.35,1.82-3.86a6.49,6.49,0,0,0-1.29,0c-4.92,1.45-9.83,2.93-14.75,4.4l-8.86-1.06.82-.42,0-.13,2-.48,4.21-.6,1.93-.5a4.73,4.73,0,0,0,.75,0l2.73-.51,3.51-.57,2-.48,4.21-.61,2.7-.52a8.42,8.42,0,0,0,.87,0l2-.48a2.35,2.35,0,0,0,.65-.06l3.56-.53.9,0,2.92-.47,1.55-.08,2.59,0c5-1.24,10.24-2.19,14.86-3.81s6.7-4.64,7.07-7.94Z" transform="translate(-109.33 -604.22)"/><path class="cls-11" d="M690.92,1011.52c7.27,1,13,2.88,13.55,8,.13,2.06.33,4.12.36,6.18a13.19,13.19,0,0,1-.36,4.29c-3.91,11.89-7.58,23.82-12,35.64-3,7.95-7.15,15.75-10.79,23.62-.42-.79-1.38-1.62-1.18-2.34,1.81-6.74,3-13.6,6.06-20.13a38.9,38.9,0,0,0,3.3-13.48q.46-19.15.93-38.3C690.79,1013.86,690.86,1012.69,690.92,1011.52Z" transform="translate(-109.33 -604.22)"/><path class="cls-17" d="M830.55,826.41c-2.11-1.07-4.41-2-6.3-3.23-13.49-8.59-26.82-17.3-37-27.5a133.36,133.36,0,0,1-13.12-15.86c-1.32-1.79-1-4-1.42-6.06,15.85,8.89,29,19,39.05,30.67,5.8,6.71,11.94,13.31,17.88,20A7.15,7.15,0,0,1,830.55,826.41Z" transform="translate(-109.33 -604.22)"/><path class="cls-23" d="M1190.09,1341.16c-4-5.94-7.68-12-12.14-17.81-9.18-11.95-18.79-23.77-28.19-35.66a21.52,21.52,0,0,1-1.53-2.48c8.2,2,14.7,5.26,19.56,9.74C1183,1309,1190.32,1324.39,1190.09,1341.16Z" transform="translate(-109.33 -604.22)"/><path class="cls-22" d="M477.64,1294.46l-23.54,4-5.94-.75c3.44-4.29,7.06-8.53,10.25-12.88,2.88-3.93,5.3-8,7.93-12l3.44,0a15.56,15.56,0,0,0-.51,3.2c0,.54.79,1.07,1.21,1.61.83-.39,2.06-.67,2.4-1.17.72-1.06.8-2.27,1.43-3.36,1.8-3.15,2.07-6.75,6.91-9l2.5,2.27,6.43-5.45,2.69,1.12C486.9,1268.94,481,1276,475,1283c-1.42,1.68-3.06,3.28-4.6,4.92-5.9-1.13,1.64-2.82-1-4.41-.64.4-1.36.78-2,1.22-1.88,1.39-3.74,2.78-5.56,4.2-.81.62-1.52,1.3-2.28,1.95a14.74,14.74,0,0,0,3.81.85C468.84,1291.41,473.58,1292.21,477.64,1294.46Z" transform="translate(-109.33 -604.22)"/><path class="cls-14" d="M930.38,812.24l-3.72-.52c2-9.21,4.32-18.41,5.87-27.65,2.19-13-6.84-22.53-25.93-28.2-10.74-3.19-22.14-5.55-33.2-8.36a42.16,42.16,0,0,1-5.11-2c.2-.26.4-.53.61-.79a29.4,29.4,0,0,1,3.72.41c11.57,2.76,23.38,5.23,34.58,8.49a100.09,100.09,0,0,1,19.72,8.14c8.21,4.47,12.65,10.57,11.47,17.25C936.41,790.16,933.12,801.18,930.38,812.24Z" transform="translate(-109.33 -604.22)"/><path class="cls-9" d="M747.89,1108.22c2.43-5.15,4.58-10.35,7.35-15.43,6.59-12.07,19.57-21.88,31.21-32.15.55-.48,2-.6,3-.89a51.82,51.82,0,0,1-3.37,6.3c-6.38,9-12.19,18.16-19.69,26.8C761.54,1098.4,754.14,1103.13,747.89,1108.22Z" transform="translate(-109.33 -604.22)"/><path class="cls-10" d="M839.09,1346.68q34.56,10.53,69.13,21.09c1.55.47,3,1,4.51,1.58-8.58-.81-17.15-1.66-25.73-2.42-7.73-.69-15.48-1.28-23.21-1.91-6.55-4.54-13.17-9-19.6-13.65A52.22,52.22,0,0,1,839.09,1346.68Z" transform="translate(-109.33 -604.22)"/><path class="cls-22" d="M366.22,1300.42l-2.66.52-1-.53c.48-4-3.92-6.14-8.17-8.46-7.6-4.14-15.33-8.2-22.43-12.64-8.45-5.3-16.92-10.36-29.27-12.15-1.58-.23-2.84-1.28-4.25-2l.57-.67a20.43,20.43,0,0,1,4.13.44c9,3,18.54,5.72,26.8,9.42,5.55,2.49,9.17,6.54,13.92,9.74a52.4,52.4,0,0,0,7.78,3.95c.85.38,2.29.26,3.87.41l-8.15-15.21.13-.07,8.11,4.4c.49-2,1.05-4.32,1.68-6.93,5.16,4.7,5.77,9.84,7,14.86,1,3.9,1.85,7.81,2.55,11.73C367.07,1298.3,366.46,1299.37,366.22,1300.42Z" transform="translate(-109.33 -604.22)"/><path class="cls-14" d="M477.64,1294.46c-4.06-2.25-8.8-3-14.25-2.74a14.74,14.74,0,0,1-3.81-.85c.76-.65,1.47-1.33,2.28-1.95,1.82-1.42,3.68-2.81,5.56-4.2.61-.44,1.33-.83,2-1.22,2.67,1.59-4.87,3.28,1,4.41.46,1.87,2,2.21,4.92,1.63,9.7-1.93,19.52-3.65,29.22-5.59,3.14-.62,5.46-.33,7.37,1.27l-33.28,5.38.5,1.16,35-4.9c10.57-.28,19.85-2.85,28.81-6l4.45,1.19c.24.67.48,1.35.71,2-6.89,1.13-13.81,2.18-20.64,3.43a28.19,28.19,0,0,0-5.18,2c0,.72,0,1.44,0,2.17C506.91,1289.82,492.45,1293.18,477.64,1294.46Z" transform="translate(-109.33 -604.22)"/><path class="cls-17" d="M501.77,1660.28c9.69-1,19.37-2.11,29.09-3,10.47-1,21-1.84,31.49-2.73,1.16-.09,2.37,0,3.55,0a42.49,42.49,0,0,1-3,4.49c-3.42,4-8.84,5.64-16.12,5.1q-21.13-1.56-42.25-3.14A18.53,18.53,0,0,1,501.77,1660.28Z" transform="translate(-109.33 -604.22)"/><path class="cls-17" d="M176.47,1587.09c3.3,1,6.72,1.78,9.89,2.88A168,168,0,0,1,226.64,1610a20.23,20.23,0,0,1,3.12,3.16c-6.39-2-13-3.85-19.13-6.08-11.64-4.2-22.35-9.18-31.11-15.51C177.88,1590.41,177.45,1588.61,176.47,1587.09Z" transform="translate(-109.33 -604.22)"/><path class="cls-15" d="M839.09,1346.68a52.22,52.22,0,0,0,5.1,4.69c6.43,4.6,13,9.11,19.6,13.65l19,27.66c.51.74,1,1.49,1.51,2.23l-3.09,1.24c-4.92-6.82-10.12-13.57-14.68-20.47-4.09-6.19-8.89-12-17.71-16.18a23,23,0,0,0-2.05-1.68q-8.85-5.76-17.76-11.5l.14-.2C832.66,1345,835.9,1345.7,839.09,1346.68Z" transform="translate(-109.33 -604.22)"/><path class="cls-24" d="M1188.39,1360.7l14.36,2.74c-.37.9-.73,1.81-1.1,2.71-3,1.24-6.3,2.31-9.06,3.74-11.32,5.86-24.27,9.35-39,10.4C1167.42,1375.23,1178.14,1368.12,1188.39,1360.7Z" transform="translate(-109.33 -604.22)"/><path class="cls-14" d="M1038.63,1152.68l-4.86,1.19c-1.63,0-3.26,0-4.89.07-14.51.31-29,.39-43.51,1A52.69,52.69,0,0,0,964,1160.4c-6.36,3.25-6.74,7.34-1.24,11.09,1.47,1,3.11,1.93,4.67,2.89l-4.49,1.17-3.25-1.3c-8.06-3.2-9.2-10-1.88-14,7.7-4.24,16.42-7.54,27.26-7.66,17.34-.19,34.69-.22,52-.29A6.91,6.91,0,0,1,1038.63,1152.68Z" transform="translate(-109.33 -604.22)"/><path class="cls-21" d="M1534.28,857.12c.33-.68.66-1.35,1-2l8.46,2.83c5.71,7.22,11.65,14.38,17.07,21.67,3.53,4.76-.3,9.37-2,14-.19.5-1.66.81-3.35,1.57C1559.78,879.68,1551.59,867.42,1534.28,857.12Z" transform="translate(-109.33 -604.22)"/><path class="cls-21" d="M1153.58,1380.29c14.74-1,27.69-4.54,39-10.4,2.77-1.43,6-2.5,9.07-3.74-1.4,1.64-2.22,3.64-4.29,4.84-14.23,8.23-31.63,12-50.91,13,1.72-2.22-1.45-1.32-2.75-1.6l8.3-1.73,1.65-.42Z" transform="translate(-109.33 -604.22)"/><path class="cls-25" d="M539.55,1258.31c-.09.58.11,1.27-.33,1.73-4.68,4.85-9.45,9.67-14.25,14.49a7.19,7.19,0,0,1-1.59.88l-13.78-4.91Z" transform="translate(-109.33 -604.22)"/><path class="cls-22" d="M470,1239.07c3.41-1.49,3.29,1.48,5.43,1.6.3,1,.66,2.1.9,3.17q2.06,9,4.05,18l-5.21-.74-2.06,2.89-3.28-1c.14-.92.28-1.83.43-2.75l.12-.61q0-8.88.07-17.77a.37.37,0,0,0-.1-.48C470.24,1240.59,470.13,1239.83,470,1239.07Z" transform="translate(-109.33 -604.22)"/><path class="cls-6" d="M639.08,1593.28c2,1.4,4.4,2.65,6,4.22,4.3,4.31,8.35,8.72,12.26,13.17.64.73.09,1.85.09,2.79l-1.79.17c-5.55-6.12-11.13-12.22-16.56-18.37-.44-.5.16-1.34.28-2Z" transform="translate(-109.33 -604.22)"/><path class="cls-8" d="M785.14,1476.37l-2.84,2.81c-4-.21-7.95-.36-11.9-.67-1.41-.12-3.25-.41-4-1-1.31-1.12-3.1-2.76-2.59-3.79.93-1.88,3.67-1.69,6.57-.86C775.19,1474.2,780.22,1475.21,785.14,1476.37Z" transform="translate(-109.33 -604.22)"/><path class="cls-7" d="M639.08,1593.28l.24,0c-1.21-.51-3-.85-3.56-1.55-4.09-4.67-8-9.4-11.8-14.17-.78-1-.55-2.28-.78-3.43l-.07,0a14.56,14.56,0,0,1,2.68,1.64c4.24,4.25,8.58,8.47,12.39,12.85C639.31,1589.9,638.82,1591.71,639.08,1593.28Z" transform="translate(-109.33 -604.22)"/><path class="cls-21" d="M536.51,1216.78l3.63-.55c.69-.33,1.43-.62,2.06-1l20.95-12.16,2.4,1.18q-9.67,6.35-19.36,12.67c-1.1.71-2.33,1.35-3.49,2Z" transform="translate(-109.33 -604.22)"/><path class="cls-14" d="M1083.1,1290c.23-2-2-2-4.3-2,7.22-2,14.39-4.15,21.69-6.06a60.66,60.66,0,0,1,7.6-1c-3,1.23-5.95,2.57-9.09,3.69C1093.77,1286.48,1088.41,1288.2,1083.1,1290Z" transform="translate(-109.33 -604.22)"/><path class="cls-5" d="M259.2,1259.63c.68-.3,1.48-.91,2-.84,10.74,1.4,21.45,2.88,32.15,4.37a1.39,1.39,0,0,1,1.22,1.12l-24.2-1.87c-1.72-.14-3.44-.31-5.16-.47Z" transform="translate(-109.33 -604.22)"/><path class="cls-23" d="M514.1,1286.86l-35,4.9-.5-1.17,33.28-5.37Z" transform="translate(-109.33 -604.22)"/><path class="cls-6" d="M492.84,1261.9l-2.7-1.12,14.24-12.49,2.69,1.08Z" transform="translate(-109.33 -604.22)"/><path class="cls-16" d="M448.16,1297.66l5.94.75a67.4,67.4,0,0,0-7.26,4c-2.75,2-5.62,1.57-8.78.72Z" transform="translate(-109.33 -604.22)"/><path class="cls-21" d="M469.84,1263l3.28,1q-1.67,4.37-3.34,8.74l-3.44,0Q468.1,1267.88,469.84,1263Z" transform="translate(-109.33 -604.22)"/><path class="cls-17" d="M843.29,963.22l-7.07,8-1.3-.35,3.88-7.73Z" transform="translate(-109.33 -604.22)"/><path class="cls-14" d="M881.21,1396.15l3.09-1.24,7.16,4.36C886.75,1399.81,884,1397.92,881.21,1396.15Z" transform="translate(-109.33 -604.22)"/><path class="cls-26" d="M629.72,1071.16l2.1-7C636.3,1067.24,635.35,1070.4,629.72,1071.16Z" transform="translate(-109.33 -604.22)"/><path class="cls-27" d="M628.58,1529.62V1525l1.13-.22c1.07,1.6,2.14,3.21,3.22,4.81Z" transform="translate(-109.33 -604.22)"/><path class="cls-24" d="M634,1050.09l.54-3.83C638.23,1047.88,638.14,1048.57,634,1050.09Z" transform="translate(-109.33 -604.22)"/><path class="cls-14" d="M431.34,1307.6l-.09-2.64,2.69-.25C436.05,1306.67,432.28,1306.66,431.34,1307.6Z" transform="translate(-109.33 -604.22)"/><path class="cls-14" d="M382.27,1370.46h2.5c0,.13,0,.26,0,.38l-2.52.18C382.29,1370.84,382.28,1370.65,382.27,1370.46Z" transform="translate(-109.33 -604.22)"/><path class="cls-6" d="M1033.2,1429l.69-.91,1.41.91Z" transform="translate(-109.33 -604.22)"/><path class="cls-23" d="M1148.24,1285.22l-.78-.56Z" transform="translate(-109.33 -604.22)"/><path class="cls-15" d="M470.36,1241.35a.37.37,0,0,1,.1.48,2,2,0,0,1-.27-.33S470.3,1241.4,470.36,1241.35Z" transform="translate(-109.33 -604.22)"/><path class="cls-14" d="M426.21,1308.15l.12.46-.2-.45Z" transform="translate(-109.33 -604.22)"/><path class="cls-16" d="M802.18,1309.3l-.91.34Z" transform="translate(-109.33 -604.22)"/><path class="cls-19" d="M909.23,1206.45c-.07-.17,0-.31.2-.44a1,1,0,0,1,0,.33C909.46,1206.39,909.32,1206.42,909.23,1206.45Z" transform="translate(-109.33 -604.22)"/><path class="cls-6" d="M961.09,1410.09l-1-.3Z" transform="translate(-109.33 -604.22)"/><polygon class="cls-6" points="883.27 825.99 883.67 825.98 883.46 826.09 883.27 825.99"/><path class="cls-6" d="M978.93,1431l1.16-.13Z" transform="translate(-109.33 -604.22)"/><path class="cls-6" d="M966.44,1411.18l-1-.3Z" transform="translate(-109.33 -604.22)"/><path class="cls-17" d="M210.16,1584.06l-.93-.19Z" transform="translate(-109.33 -604.22)"/><path class="cls-21" d="M470.39,1259.6l-.12.61a1.39,1.39,0,0,1-.12-.43C470.15,1259.72,470.31,1259.66,470.39,1259.6Z" transform="translate(-109.33 -604.22)"/><path class="cls-7" d="M869.69,1157a1.07,1.07,0,0,1-.15-.37s.16-.09.25-.14A.35.35,0,0,1,869.69,1157Z" transform="translate(-109.33 -604.22)"/><path class="cls-7" d="M869.66,1161.37a1.59,1.59,0,0,1-.26-.32s.11-.1.16-.15C869.79,1161,869.82,1161.2,869.66,1161.37Z" transform="translate(-109.33 -604.22)"/><path class="cls-6" d="M916.89,1402.43l-1.37-.3Z" transform="translate(-109.33 -604.22)"/><path class="cls-28" d="M829,1346.32q8.9,5.75,17.76,11.5a23,23,0,0,1,2.05,1.68c-5.44-.7-11-1.17-16.32-2.12-20.59-3.65-40.09-8.7-56.73-17.21-3.78-1.93-6-4.32-6.08-7.37,20,3.11,39.77,6.68,58,12.83A10.07,10.07,0,0,1,829,1346.32Z" transform="translate(-109.33 -604.22)"/><path class="cls-5" d="M522.24,1291.67c0-.73,0-1.45,0-2.17,15.67.35,31.34.72,47,1,2.45,0,4.92-.28,7.38-.44a25.05,25.05,0,0,0,5,1c17.06.08,34.12,0,51.18.06,1.62,0,3.25.24,5.45.41l-10.09,2.25-2.45.06c-.11-.34-.22-.68-.34-1l-1.09.31,1.38.74v2.46c-29.54-4.25-59.75-3-89.68-4.08C531.38,1292.14,526.81,1291.88,522.24,1291.67Z" transform="translate(-109.33 -604.22)"/><path class="cls-14" d="M625.69,1293.89l2.45-.06,2,1.62c-.18.54-.37,1.07-.56,1.61l-4-.68v-2.46Z" transform="translate(-109.33 -604.22)"/><path class="cls-6" d="M961,1430.13l-1.78.11Z" transform="translate(-109.33 -604.22)"/><path class="cls-28" d="M768.36,1332.53l1.09.18Z" transform="translate(-109.33 -604.22)"/><path class="cls-6" d="M937.74,1432l-1.36.27Z" transform="translate(-109.33 -604.22)"/><polygon class="cls-6" points="823.3 803.16 823.58 803.18 823.45 803.27 823.3 803.16"/><polygon class="cls-6" points="903.82 822.2 903.47 822.22 903.66 822.11 903.82 822.2"/><path class="cls-2" d="M632,1024c-.14,4.83.5,9.73-.56,14.49-4.54,20.45-17.94,39.28-29.76,58.38-15.46,25-31.93,49.7-51,73.75-1.32,1.66-4,2.92-6.1,4.37-.37-.28-.66-.75-1.11-.81-6-.83-9.38-3.54-12.8-6.29-1.66-1.33-3.56-2.55-6.15-4.39-3.74,3-7.89,5.31-10.12,8.22-4.44,5.78-7.77,11.88-11.68,17.82a19.31,19.31,0,0,1-3.15,2.79l2.18,2.64c-3.9,2.26-6.26.28-9-.77-1.47-.55-4.11-1.34-4.84-1-3.26,1.59-7.27,3-7.55,6-.26,2.86-2.86,4.4-7.26,5.06-2.1.31-4.14.76-6.21,1.16a2.78,2.78,0,0,0-.71-.12c.25-2.87.46-5.74.75-8.61.63-6,1.29-12,1.94-18l1.31-2.73c6.49,0,11.68-1.69,17.18-3.69,7.25-2.63,6.86-5.85,4.68-9.76-.05-.08,0-.18,0-.27-.43-3.21,2.63-4.77,7.78-3.89,2.42.42,4.7,1.12,7.13,1.53a14,14,0,0,0,3.17-.22c-.27-.54-.29-1.23-.87-1.61-5.55-3.64-11.12-7.28-16.88-10.79a7.66,7.66,0,0,0-4.15-.46c-3.76.65-7.4,1.56-11.83,2.53.19-1.83.64-3.15.35-4.42a3.61,3.61,0,0,0-2.26-2.49c-2.66-.65-3-1.67-3.05-3.16-.07-2.58-.48-5.16-.75-7.74v-8.06l-3.67-.17c0-.19.05-.39.08-.58h3.91a27.88,27.88,0,0,0,1.39-4.4q2.29-16.93,4.43-33.89c.44-3.5.41-7,1.15-10.51,1.84-8.7,4-17.38,6-26.06h6.24c6.61,0,8.59,1.31,11.91,4.85,2,2.18,6.1,3.69,9.46,5.35a31.31,31.31,0,0,0,4.85,1.32c2.57.72,3.45,1.71,2.15,3.47-.65.87-.2,2-.24,3.08,1.68,0,3.64.25,5-.18a65.22,65.22,0,0,0,8.83-3.51c5.43-2.64,10.8-5.34,15.95-8.17,5.33-2.93,4.37-8.64-1.63-11.06-.73-.29-1.51-.54-2.65-1l7.12-5.75-9.19-2.43a24.21,24.21,0,0,1,2.24-2.21c3.6-2.71,3.25-4.64-1.35-7-3.08-1.56-6.63-.92-10,1.78a17.42,17.42,0,0,1-1.79,1.2c-3.94,2.37-6.06,2.21-8.33-.78-3.71-4.9-3.69-10-1-15,1.61-3,7-3.36,11.27-4.13a9.06,9.06,0,0,1,8.15,2.23c4.33,3.78,8.84,7.28,8.51,12.42-.1,1.66,3.68,3.48,5.94,5.09a13.58,13.58,0,0,0,12.81,1.94,24.78,24.78,0,0,1,3.5-.53c1.4,4.17,2.91,7.92-2.14,11.66-3.61,2.67-2,5,3.15,6.55,8.34,2.55,8.35,2.55,13.13-1.89,4.49,1.23,8.72,2.78,13.3,3.45,1.86.27,4.47-1.39,7.77-2.52-4.63-2.42-8.42-4.49-12.37-6.44-3.43-1.69-3.47-2.69.53-3.91,4.58-1.4,9.13-2.81,11.06-5.92,1-1.56,1.91-3.31,1.68-4.91-.56-3.82,2.23-6.37,7.29-8.61Z" transform="translate(-109.33 -604.22)"/><path class="cls-5" d="M483.91,1047.89c-2,8.69-4.19,17.37-6,26.07-.74,3.47-.7,7-1.15,10.51q-2.14,17-4.43,33.89a27.88,27.88,0,0,1-1.39,4.4H467c0-15.93.25-31.85-.18-47.77-.25-9.55-1.6-19.08-2.44-28.62-.1-1.18-.07-2.35-.11-3.53-.31-8.4-.41-16.81-1-25.2-.62-8.73-1.8-17.44-2.59-26.17-.45-5-.38-10.1-.92-15.14-1.3-12-2.64-24.09-4.31-36.11-2.58-18.56-11.09-36.4-18.11-54.42-.62-1.58.25-3.37.42-5.06,4,.35,4.37,2.51,5,4.18,7.87,21,15.71,42.09,23.26,63.17,4.1,11.49,8.12,23,11.27,34.59a152.55,152.55,0,0,1,4.67,26.24C483.12,1021.89,483.31,1034.9,483.91,1047.89Zm-10.82,27,1.54,0a12.26,12.26,0,0,0,1.14-2.92c.21-1.8,0-3.62.2-5.42.83-8.53,2.06-17.06,2.49-25.6.3-5.84-.34-11.71-.81-17.57-.45-5.48-1-11-1.92-16.41-1.26-7.86-2.64-15.72-4.33-23.55-1.86-8.62-4.1-17.21-6.31-25.8-.14-.53-1.48-.95-2.27-1.42-.38.59-1.15,1.2-1.08,1.77.75,6.27,1.79,12.53,2.44,18.81,1,9.79,1.83,19.59,2.71,29.39.9,10.08,1.85,20.15,2.66,30.22.7,8.64,1.22,17.28,1.85,25.92q.38,5.13.93,10.26A11.22,11.22,0,0,0,473.09,1074.89Z" transform="translate(-109.33 -604.22)"/><path class="cls-22" d="M466.92,1123.34l3.67.17v8.06c-.06,7,0,14-.24,21.07-.35,8.7-1,17.4-1.54,26.1-.65,6-1.31,12-1.94,18-.29,2.87-.5,5.74-.75,8.61l-.76,1.41c.15.44.3.87.44,1.3-.72,1-1.82,2-2.09,3-.62,2.38-2.82,3.45-6.58,3.56l-6.24-4.89h0c4.52.64,6-.7,6.29-3.26,1.4-11.67,3.1-23.32,4.43-35,1.08-9.52,1.79-19.06,2.68-28.6.56-5.94,1.11-11.88,1.73-17.81A5.75,5.75,0,0,1,466.92,1123.34Z" transform="translate(-109.33 -604.22)"/><path class="cls-24" d="M482.08,881c28.65,12.55,58.44,24.32,79.09,42.4a13.19,13.19,0,0,1,2.06,2.89l0,.13c-2.48-.75-5.42-1.19-7.39-2.29-17.26-9.63-34.29-19.4-51.51-29.06-6.21-3.48-12.85-6.67-19-10.19C483.7,883.93,483.14,882.29,482.08,881Z" transform="translate(-109.33 -604.22)"/><path class="cls-27" d="M464.28,874.62l15.37,5.43c-1.41.13-3.33.68-4.13.31C471.61,878.58,468,876.56,464.28,874.62Z" transform="translate(-109.33 -604.22)"/><path class="cls-27" d="M563.25,926.4l0-.13,9.88,9.21C568.53,933,563,930.86,563.25,926.4Z" transform="translate(-109.33 -604.22)"/><path class="cls-27" d="M462.46,874.08l1.86.56Z" transform="translate(-109.33 -604.22)"/><path class="cls-27" d="M573,935.45l.9,1.12Z" transform="translate(-109.33 -604.22)"/><path class="cls-22" d="M450.89,1209.73a1.59,1.59,0,0,1-.33-.1c-.05,0,0-.1,0-.15l.35.26Z" transform="translate(-109.33 -604.22)"/><path class="cls-27" d="M461.65,873.61l.89.51Z" transform="translate(-109.33 -604.22)"/><path class="cls-5" d="M190.48,1143.47c-1,.12-2,.29-3,.33-3.44.13-4.63-.84-3.33-2.78.83-1.23,1.92-2.4,2.89-3.59,14.93,4.21,29.71,8.65,44.85,12.57,17,4.38,32.32,10.11,44.06,18.78a125,125,0,0,1,18.61,16.47c19.85,22.12,38.67,44.57,53.82,68.07,2.86,4.45,5.27,9,7.85,13.51.18.31,0,.7-.93,1.5-1.7-1.21-3.94-2.26-5-3.65-10.27-13.32-20.1-26.78-30.54-40.06-12.35-15.71-24.61-31.47-38-46.85-8.07-9.25-20.62-16.39-36.43-20.84-16.81-4.73-34-9-51-13.4A17.2,17.2,0,0,0,190.48,1143.47Z" transform="translate(-109.33 -604.22)"/><path class="cls-27" d="M247.85,1251c-1.67,1.85-3.06,1.59-5.24.09-31.11-21.46-47.75-47.11-58-74.55a72.4,72.4,0,0,1-3.7-17.12c-.46-3.92.48-7.9.79-11.9l4.21.28,1.29,4.25c1.11,5.71,2.15,11.42,3.35,17.12A103.6,103.6,0,0,0,206,1206.55c10.08,15,23.67,28.68,39.23,41.72A29.59,29.59,0,0,1,247.85,1251Z" transform="translate(-109.33 -604.22)"/><path class="cls-5" d="M187.19,1152.09l-1.29-4.25h5.47c5.58,5,11.38,9.88,16.7,15a461.63,461.63,0,0,0,60.58,48.77c15.26,10.35,30.57,20.68,45.15,31.38,9.43,6.93,17.61,14.49,26.26,21.81a14.13,14.13,0,0,1,2.22,3.08l-1.07.42c-2.27-1.68-4.74-3.28-6.8-5.06a452.45,452.45,0,0,0-46.69-34.8c-29.34-19.32-56.82-39.56-81-61.39q-6.6-5.94-13.69-11.68C191.44,1154.07,189.14,1153.16,187.19,1152.09Z" transform="translate(-109.33 -604.22)"/><path class="cls-22" d="M347.4,1273.29c-.21-.2-.42-.4-.6-.61,0,0,.2-.1.31-.16l.42.7Z" transform="translate(-109.33 -604.22)"/><path class="cls-27" d="M964.38,1278.13c17.61-5.7,35.47-7,53.71-1.07a50.23,50.23,0,0,1-7.14,1.06C995.42,1278.2,979.9,1278.14,964.38,1278.13Z" transform="translate(-109.33 -604.22)"/><path class="cls-27" d="M801.43,1311.42,821,1308c-1.41.61-2.74,1.29-4.23,1.81-9.35,3.26-18.81,6.41-28.07,9.77-2,.72-3.31,2.16-4.94,3.27l-5.58,1.1-13.85.84C775.18,1318,788.37,1314.78,801.43,1311.42Z" transform="translate(-109.33 -604.22)"/><path class="cls-27" d="M820.9,1308l2.75-.56Z" transform="translate(-109.33 -604.22)"/><path class="cls-5" d="M548.07,1284.07c-.23-.67-.47-1.35-.71-2,55.95-8.41,111.55-17.59,166.61-28,45.93-8.68,91.48-18,136.4-28.51a16.06,16.06,0,0,0,1.84-.66c4.91-1.47,9.82-3,14.75-4.4a6.49,6.49,0,0,1,1.29,0l-1.82,3.86c-25.11,7.18-51.64,12-77.88,17.29-19.65,4-39.28,8-59.1,11.6-41,7.51-82.18,14.79-123.3,22.12-11.77,2.1-23.69,3.89-35.37,6.16-3.14.6-5.64,2.43-8.43,3.7Z" transform="translate(-109.33 -604.22)"/><path class="cls-27" d="M548.07,1284.07l14.28,1.19c3.75,1.08,7.53,2.13,11.22,3.28a19.11,19.11,0,0,1,3.07,1.53c-2.46.16-4.93.49-7.38.44-15.67-.29-31.34-.66-47-1a27.46,27.46,0,0,1,5.18-2C534.26,1286.25,541.18,1285.2,548.07,1284.07Z" transform="translate(-109.33 -604.22)"/><path class="cls-22" d="M773.59,1277c-9.36,4.13-20.59,6.1-54,9.19a47.35,47.35,0,0,1,6.4-1.94c14.36-2.36,28.77-4.61,43.17-6.87C770.33,1277.18,771.59,1277.15,773.59,1277Z" transform="translate(-109.33 -604.22)"/><path class="cls-22" d="M646.4,1290.61l62-3.67C700.63,1289.38,649.58,1292.41,646.4,1290.61Z" transform="translate(-109.33 -604.22)"/><path class="cls-22" d="M681.65,1089.28c3.64-7.87,7.79-15.67,10.79-23.62,4.45-11.82,8.12-23.75,12-35.65a13.1,13.1,0,0,0,.36-4.28c0-2.06-.24-4.12-.36-6.18a62,62,0,0,0,1.29-8.27c.29-10.85,1.44-21.75-4.13-32.34-.17-.32,0-.7,0-1.06l2.71-.13c.53,2.47,1.2,4.93,1.58,7.4,1.84,12.22,3.61,24.44,5.4,36.65a9.67,9.67,0,0,0-1,2.35c-1.1,8.78-2.57,17.5-6.15,26.09-6.07,14.54-10.31,29.42-17.71,43.7-10.13,19.55-19.39,39.41-36.79,57.29-1.5,1.55-1.72,3.56-2.53,5.36l-1.47,1.56-7.71-.57c5.09-5.89,10.43-11.71,15.21-17.68a170.07,170.07,0,0,0,24.17-41.17C678.72,1095.57,680.23,1092.43,681.65,1089.28Z" transform="translate(-109.33 -604.22)"/><path class="cls-21" d="M535.47,1214.44l-.12.63Z" transform="translate(-109.33 -604.22)"/><path class="cls-5" d="M1400.76,876.34l-11.32-1c-.17,1.29-.32,2.41-.47,3.53-2.37,0-4.75.09-7.11,0-36.06-1.43-72-1.49-107.84,2.06,1-.83,1.61-1.93,2.91-2.44a62.14,62.14,0,0,1,6.91-1.86c46.6-1.9,93.26-2.49,140-2.1.58,0,1.17.09,1.75.14l-1.82,1.41Z" transform="translate(-109.33 -604.22)"/><path class="cls-21" d="M1283.84,876.65a62.14,62.14,0,0,0-6.91,1.86c-1.29.51-2,1.6-2.91,2.44-1.87.27-3.74.52-5.6.82-13.13,2.09-26.44,3.86-39.35,6.39-11.76,2.3-23.08,5.44-34.6,8.21l-.75-.53c1.37-.85,2.51-2,4.15-2.5,8-2.69,15.74-5.88,24.26-7.69,11.61-2.46,23.83-3.82,35.8-5.66l-26.77-1.09c0-.63,0-1.26,0-1.89l50.11-.57C1282.11,876.43,1283,876.58,1283.84,876.65Z" transform="translate(-109.33 -604.22)"/><path class="cls-21" d="M1547.71,898.56l.34.13-.26-.17Z" transform="translate(-109.33 -604.22)"/><path class="cls-13" d="M1194.47,896.37c11.52-2.77,22.84-5.91,34.6-8.21,12.91-2.53,26.22-4.3,39.35-6.39,1.86-.3,3.73-.55,5.6-.82,35.8-3.55,71.78-3.49,107.84-2.06,2.36.1,4.74,0,7.11,0q35.15,3.08,70.29,6.12c13.77,1.19,27.54,2.36,41.34,3.39,4.7.35,9.49.23,14.23.38,11,.35,15.37,4.81,10.55,10.76a30.53,30.53,0,0,1-5.43,5.25,79.9,79.9,0,0,0-20.66,22.27c-7.27,11.88-14.65,23.73-22,35.59-2.19-.36-4.78-.38-6.49-1.14-14.27-6.34-28.48-12.73-42.51-19.27a120.61,120.61,0,0,0-47.16-11.51c-23.1-.9-46.17-2.39-69.29-2.79-29.28-.51-56.95,4.18-83.54,11.45-12.7,3.47-25.53,6.76-38.3,10.14l.38.7c5.79-1,11.69-1.8,17.35-3q22.86-4.9,45.56-10.08c27.7-6.29,56.49-7.61,85.57-6.26,20.39,1,40.65,3,60.94,4.62a27.41,27.41,0,0,1,8.11,2q30.1,12.84,60,25.87c4,1.73,4.33,2.78,1.77,4.46-26.43-9.24-55-13.94-85.17-15.18q-16.58-1-33.17-1.95c-1-.05-2.52-.1-3,.25-4.55,3.59-10.56,2.31-16.41,2.11-2.94-.09-5.94.6-9.34,1l27.13,8.6c6.42,2.74,12.8,5.52,19.28,8.21,12.49,5.19,25,10.32,37.54,15.48-.18.8-.36,1.59-.55,2.38a91.59,91.59,0,0,1-33.36,16.16,144,144,0,0,1-35.43,4.15,1.05,1.05,0,0,0-.8,0c-5.41-.44-11-.55-16.2-1.37-17.1-2.68-30-8.41-35-19.28-4.87-10.55-3.25-21,1.28-31.46.87-2,3.15-3,6.56-2.93,4.59.07,9.18.23,13.78.28s9.47,0,14.42,0c-3.58-2.55-8.18-2.16-12.57-2.23a1,1,0,0,0-.79,0l-48.22-.07a1.27,1.27,0,0,0-.84,0c-17.36.9-33.9,3.38-48.6,9.6a12.45,12.45,0,0,0,5.39.07,246.37,246.37,0,0,1,52.16-7.39c4.48-.12,9,0,13.83,0-.44,1.42-.7,2.3-1,3.18-2.82,8.34-5.39,16.7-3.08,25.25,1.77,6.58,4.55,13.12,12.88,17.76,15.19,8.46,33.34,12.19,54,11l.42.05.41-.09c4.12-.32,8.28-.48,12.34-1,22.23-2.7,40.46-9.13,52.52-21.2l7.2-.54,3,.64-2,1.84c5.07,1.8,10,3.61,15,5.29,5.83,2,6.06,3.72,1.67,6.69-11.7,7.94-27.4,11-43.46,13.75-11.85,2-23.76,4.18-36.22,2.75a220.2,220.2,0,0,1-22.21-3.5c-16.64-3.68-32.87-8.1-49.66-11.5-11-2.23-22.62-3.37-34.06-4.71-13.35-1.56-26.78-2.87-40.22-4.12-1.93-.18-4.06.64-6.15.79a41.23,41.23,0,0,1-4.82-.19c-6.83-1.33-9.69-3.63-8.23-8.43,1.27-4.19-2.35-7.84-8.7-10.13a1.2,1.2,0,0,0,0-.5l5.37-4.88,6.7-4.29a40.37,40.37,0,0,0-5.31,1c-2.18.73-4.1,1.74-6.13,2.64-6.39,2.59-12.85,5.12-19.15,7.8-2.44,1-4.6,1.55-7.13.15l5.57-14.26c-6.92,1.54-5.06,6.95-12.49,8.81.6-3.71.19-6.87,1.7-9.63q15.72-28.59,32.24-57c1.63-2.8,5.09-5.21,7.78-7.77C1191.65,898.63,1193.11,897.52,1194.47,896.37Z" transform="translate(-109.33 -604.22)"/><path class="cls-26" d="M1384.52,954.34c19.33,2.95,38.78,5.63,58,8.9,22.25,3.8,40,11.88,54.65,22.65,5.28,3.88,11.4,7.33,17.9,11.45-5.64.88-11.15,2.2-16.82,2.53-11.54.68-23.16.58-34.19-2.1-8.51-2.07-15.27-5.47-20-10.32-5.54-5.69-11.38-11.26-20.21-15.33-2.81-1.3-6-2.34-8.94-3.5-1.53-.7-3-1.46-4.6-2.08-11.25-4.36-23.71-7-36.35-9.38q-9-1.7-18-3.35l.15-.33Z" transform="translate(-109.33 -604.22)"/><path class="cls-19" d="M1384.52,954.34l-28.44-.85a3.18,3.18,0,0,0-.16.32q9,1.66,18,3.35c12.64,2.38,25.1,5,36.35,9.38,1.61.62,3.07,1.38,4.6,2.08l1,4.91q1.44,4.72,2.87,9.46l-.34,1.78-4.11.38,3,3.49-7.2.54a1.34,1.34,0,0,0-.49,0l-2.82-.45h-.8c.19-.79.37-1.58.56-2.38.36-.86.73-1.71,1.1-2.57.08-.88.16-1.76.25-2.64.23-.68.47-1.36.7-2,5.32-.16,3.93-2.36,3.06-4.08-2.73-5.36-9.77-7.94-17.87-9.6-7.68-1.57-15.46-3-23.24-4.35-3.91-.69-7.93-1.14-11.9-1.7l-1.67-1.54-1.15.49,1.55,1.54c.06.39.11.78.17,1.18l-7.83,1.61-27.13-8.6c3.4-.38,6.4-1.07,9.34-1,5.85.2,11.86,1.48,16.41-2.11.44-.35,2-.3,3-.25,11.06.63,22.12,1.3,33.17,1.95C1384.52,953.21,1384.52,953.78,1384.52,954.34Z" transform="translate(-109.33 -604.22)"/><path class="cls-27" d="M1418.76,983q-1.44-4.72-2.87-9.46a18.83,18.83,0,0,1,11.07,4.91c3.79,3.54,7.93,6.94,11.43,10.84Z" transform="translate(-109.33 -604.22)"/><path class="cls-27" d="M1417.34,988.64l-3-3.49,4.12-.38,21.19,8.85-.31.87a20.88,20.88,0,0,1-4.08-.38c-5-1.54-9.93-3.21-14.87-4.83Z" transform="translate(-109.33 -604.22)"/><path class="cls-18" d="M465.8,1208.07c-.14-.43-.29-.86-.43-1.29l1.46-1.3c2.07-.4,4.11-.85,6.21-1.17,4.4-.65,7-2.19,7.26-5,.28-3,4.29-4.43,7.55-6,.73-.36,3.37.43,4.84,1,2.78,1,5.14,3,9.05.77l-2.19-2.64a19.31,19.31,0,0,0,3.15-2.79c3.91-5.94,7.24-12,11.68-17.82,2.23-2.91,6.38-5.26,10.12-8.22,2.59,1.84,4.49,3.06,6.15,4.39,3.43,2.75,6.84,5.46,12.8,6.29.45.06.74.53,1.11.81l-23.92,17.71c-.37.28-.63.7-1.1.83-13.1,3.54-19.12,11.77-30,16.78-1.06.49-2,1.05-3,1.57l-21,3.44Q465.65,1211.71,465.8,1208.07Z" transform="translate(-109.33 -604.22)"/><path class="cls-24" d="M504.38,1248.29l-14.24,12.5-6.42,5.45-2.5-2.27-.15-1.64-.77-.51.09,0q-2-9-4.05-18c-.24-1.07-.6-2.12-.9-3.17a7.13,7.13,0,0,1,2.21.21c7.15,4.35,15.86,4.2,24.85,3.3,1.41-.14,2.83-.25,4.55-.39Z" transform="translate(-109.33 -604.22)"/><path class="cls-27" d="M465.48,1215.34l21-3.44-16.22,17.24c-3.8-3.59-7.78-6.61-6.89-10.72C463.65,1217.36,464.77,1216.37,465.48,1215.34Z" transform="translate(-109.33 -604.22)"/><path class="cls-9" d="M780.82,1233.08c-10,1-20.28,1.42-30.05,3-48.11,7.75-96.2,15.56-144.07,23.83-24,4.14-47.56,9.32-71.32,14a7.94,7.94,0,0,1-3.4,0c3.41-3.28,6.58-6.66,10.27-9.81,13.94-11.92,32.48-20.78,52.91-28.09,13.63-4.89,28.12-8.89,42.33-13.18,11.55-3.48,23.25-6.76,36-8.36,5.44-.68,10.91-1.27,16.3-2.07a8.93,8.93,0,0,0,2.85-1.25c6.36-.7,12.39-1.49,18.49-2,15.76-1.34,31.5-2.93,47.34-3.73,18.71-.93,37.52-1.13,56.28-1.65-2.29.19-4.56.46-6.86.55-5.29.21-10.41-.21-15.7,1.56-5,1.68-11.27,2.08-17.07,2.79-6.92.85-10.69,4.17-14.66,7.08-1.13.83.25,3.49,1.63,4.88s3.92,2.15,6.23,2.9c6.2,2,12.54,3.89,18.85,5.79,1.41.43,2.94.73,4.41,1.08l-10.77,2.72Z" transform="translate(-109.33 -604.22)"/><path class="cls-22" d="M780.8,1233.09l10.77-2.72a6.22,6.22,0,0,0,.87,0l3.59-.51a6.33,6.33,0,0,0,.87,0l2.93-.47a1.6,1.6,0,0,0,.62,0l2.63-.06,1.85-.51,2.87-.47a2.25,2.25,0,0,0,.69-.06l2.61-.06,1.85-.5h1.74l1.82-.51,3.58-.53a8.62,8.62,0,0,0,.88,0l1.74,0,1.83-.51,2.93-.47a1.65,1.65,0,0,0,.63,0l2.62-.06,5.42-1.05,3.55-.52.9,0,1.76.08c-1,.52-1.86,1.36-3,1.52q-27.36,4-54.79,7.84A21.1,21.1,0,0,1,780.8,1233.09Z" transform="translate(-109.33 -604.22)"/><path class="cls-9" d="M834.31,1204.28l41.94,0c-.45.29-.9.82-1.34.82q-18.21-.09-36.43-.3A33,33,0,0,1,834.31,1204.28Z" transform="translate(-109.33 -604.22)"/><path class="cls-9" d="M906,1204.84l-.76.66-12.11-.69Z" transform="translate(-109.33 -604.22)"/><path class="cls-9" d="M816.49,1203.75l3.57,0C818.82,1205.75,817.66,1204.68,816.49,1203.75Z" transform="translate(-109.33 -604.22)"/><path class="cls-9" d="M875.37,1217.88l-3.57.53Z" transform="translate(-109.33 -604.22)"/><path class="cls-9" d="M839.69,1223.85l-3.55.52Z" transform="translate(-109.33 -604.22)"/><path class="cls-9" d="M796,1229.83l-3.59.51Z" transform="translate(-109.33 -604.22)"/><path class="cls-9" d="M820.09,1226.57l-3.58.53Z" transform="translate(-109.33 -604.22)"/><path class="cls-9" d="M811.1,1228.12l-2.61.06Z" transform="translate(-109.33 -604.22)"/><path class="cls-9" d="M827.47,1225.53l-2.93.47Z" transform="translate(-109.33 -604.22)"/><path class="cls-9" d="M868.26,1219l-2.7.52Z" transform="translate(-109.33 -604.22)"/><path class="cls-9" d="M879.19,1217.38l-2.92.47Z" transform="translate(-109.33 -604.22)"/><path class="cls-9" d="M799.83,1229.33l-2.93.47Z" transform="translate(-109.33 -604.22)"/><path class="cls-9" d="M807.8,1228.24l-2.87.47Z" transform="translate(-109.33 -604.22)"/><path class="cls-9" d="M803.08,1229.22l-2.63.06Z" transform="translate(-109.33 -604.22)"/><path class="cls-9" d="M830.72,1225.42l-2.62.06Z" transform="translate(-109.33 -604.22)"/><path class="cls-9" d="M888.73,1204.84l2.7,0Z" transform="translate(-109.33 -604.22)"/><path class="cls-9" d="M883.33,1217.26l-2.6,0Z" transform="translate(-109.33 -604.22)"/><path class="cls-9" d="M855.81,1221.15l-2.73.51Z" transform="translate(-109.33 -604.22)"/><path class="cls-9" d="M814.69,1227.61h0Z" transform="translate(-109.33 -604.22)"/><path class="cls-9" d="M822.71,1226.51l-1.74,0Z" transform="translate(-109.33 -604.22)"/><path class="cls-9" d="M871.15,1218.47l-2,.48Z" transform="translate(-109.33 -604.22)"/><path class="cls-9" d="M842.35,1223.91l-1.76-.08Z" transform="translate(-109.33 -604.22)"/><path class="cls-9" d="M846.18,1222.82l-2,.47Z" transform="translate(-109.33 -604.22)"/><path class="cls-9" d="M852.33,1221.71l-1.93.5Z" transform="translate(-109.33 -604.22)"/><path class="cls-9" d="M861.34,1220.1l-2,.48Z" transform="translate(-109.33 -604.22)"/><path class="cls-5" d="M844.17,1223.42l-.82.42Z" transform="translate(-109.33 -604.22)"/><path class="cls-9" d="M831.66,1204.29h0Z" transform="translate(-109.33 -604.22)"/><path class="cls-18" d="M570.28,1647.44c-1.62,5.2-8.8,4.38-14.57,4.88-11.06,1-22.14,1.79-33.24,2.59-9.2.66-18.42,1.36-27.66,1.74-15.6.66-31.22,1.24-46.85,1.5-4.71.08-9.46-1-14.19-1.56-2.84-.85-5.55-2-8.55-2.48-6.58-1-13.34-1.54-20-2.35-36.26-4.41-72.09-9.76-106.78-17.71-10.07-2.3-20.43-4.13-30.65-6.18-2.66-1.23-5.5-2.34-8-3.7-12.79-7.14-25.29-14.49-38.3-21.48-8.87-4.77-18.46-9-27.61-13.62-1.15-.58-1.57-1.68-2.33-2.53a32.58,32.58,0,0,1,4.51-.1c22.91,2.56,45.89,4.93,68.69,7.83,24.12,3.07,48,7,72.12,9.88,13.7,1.65,27.75,2.67,41.7,2.94,24,.47,48.05-.15,72.05.24,20.05.33,40.23.51,59.83,3.7,19,3.1,36,8.41,49,17.64,3.78,2.69,6.25,6.08,9,9.25a36.73,36.73,0,0,1,3.37,5.28c-5.11-1.17-10.28-2.3-15.37-3.54a317.13,317.13,0,0,0-55.46-7.91c-13.07-.81-26.22-1.27-39.34-1.65-17-.5-34.1-.44-51.07-1.23-11.72-.55-23.35-2-35-3.29-20-2.22-40.07-4.42-60-7-19.54-2.5-38.19-6.55-55-13.37-1.11-.45-2.28-.85-3.46-1.21a22.2,22.2,0,0,0-2.26-.44c-1.06,2.26,1.64,2.94,3.77,3.83,17,7.16,36.35,11.06,56.15,13.8,20.11,2.77,40.55,4.76,61,6.62,16.18,1.48,32.56,2.09,48.8,3.34,21.33,1.64,42.71,2.24,64.21,2.16,22.09-.08,42.85,3.82,63.25,8.56,5,1.16,10,2.16,15,3.37a12,12,0,0,1,3.12,1.76C570.51,1647.16,570.51,1647.3,570.28,1647.44Z" transform="translate(-109.33 -604.22)"/><path class="cls-24" d="M267.8,1627.87c10.22,2.05,20.58,3.88,30.65,6.18,34.69,8,70.52,13.3,106.78,17.71,6.65.81,13.41,1.37,20,2.35,3,.44,5.71,1.63,8.55,2.48-9.19,1.69-18.25.14-27.24-.61-31-2.56-61.3-7.21-91.23-12.72-14-2.58-26.21-7.4-38.61-11.94C273.68,1630.22,270.76,1629,267.8,1627.87Z" transform="translate(-109.33 -604.22)"/><path class="cls-25" d="M711.36,1021.8c-1.79-12.21-3.56-24.43-5.4-36.65-.37-2.47-1.05-4.93-1.58-7.4-1.65-7.42-6.85-14.08-11.67-20.85a54.33,54.33,0,0,1-9.23-23.19c-3.05-18.18,3.9-35.34,13.39-52.27,3.86-6.88,8.37-13.63,12.58-20.43.16.34.14.8.51,1,8.31,4.79,17,9.28,28.5,10.9,6.08.86,9.14,0,11.16-2.6l.18-.2-.18.2-6.92-.57-.48-.94,13.56-9.62c-3.11-1-6.76-2-9.88-3.41-1.59-.71-3.44-2.4-3-3.31,1-2.26,3.16-4.33,5.26-7l9.51,8.26,1.19-.34a52.85,52.85,0,0,0-1.1-6.93c-.49-1.68-2.23-3.51.92-4.66,3.48-1.26,6.37-3.61,11.42-2.58,9,1.83,9,1.75,3.34,6.12-.69.53-.8,2-.14,2.39,5.31,3,15.46,2.46,19.45-1.27,3.27-3,5.5-6.52,8.13-9.82a1.93,1.93,0,0,0,.36-1.31c-.05-1.23-.2-2.45-.35-4.11a4,4,0,0,1-1.58-.63c-4-3.33-7.81-6.81-14.31-8.63a1.94,1.94,0,0,1-1.11-.82c-1.09-1.84-3.07-1.48-5.22-1,.3,1.84.58,3.52.92,5.51-9.65,1.25-19.19,2.87-29.21,1.94-5.68-.53-11.31-1.23-17-1.86l22.37-34.11c2.36-3.59,4.66-7.2,7.16-10.76a5.17,5.17,0,0,1,2.71-1.54,3.94,3.94,0,0,1,2.24,1.33c6.38,9.61,18.17,17,27.63,25.38,6.13,5.41,12.45,10.76,19.08,15.94,5.26,4.11,11.6,7.73,16.58,12,4.71,4,8.31,8.49,12.31,12.8a5.2,5.2,0,0,1,.77,2.07c1.06,2.77,2.24,5.52,3.15,8.31A85.77,85.77,0,0,1,850.72,894c-.41,3.64-.34,7.31-.5,11q-1.56,8.77-3.11,17.54c-2.46,6.75-5,13.49-7.37,20.24-4.81,13.6-8.94,27.3-14.55,40.77-3.52,8.44-9.23,16.53-14,24.78a10.88,10.88,0,0,0-2.19.17c-5.49,1.68-9.49,1-13.33-2.11-4.48-3.57-10.26-6.53-14.76-10.09-2.43-1.92-2.77-4.82-5.15-6.77-3-2.43-4.51-4.86-3.88-7.78,1.54-7.07-9.07-11.38-18.4-11.49-1.68,3.55-3.54,6.94-4.79,10.41a4.62,4.62,0,0,0,.81,4.31c1.18,1.5,3.39,2.71,5.3,4,5.35,3.51,5,7.53-1,10.6a5.67,5.67,0,0,1-6.06-.08,47.47,47.47,0,0,0-10.42-3.9,11.23,11.23,0,0,0-6.44.74,133.71,133.71,0,0,0-11,8,24.83,24.83,0,0,0-2.34,2.4l12.11-.55-4.23,5.9c7.38-.35,12.45,1.32,15.68,4.9,2.57,2.85,5,5.75,7.55,8.6,1.89,2.11,4.1,4.13-.81,6-.87.32-.92,1.46-1.19,2-3.84-4.18-7-8.77-11.84-12.64C726.45,1014,718,1015.56,711.36,1021.8Z" transform="translate(-109.33 -604.22)"/><path class="cls-29" d="M711.36,1021.8c6.67-6.24,15.1-7.76,23.48-1,4.78,3.87,8,8.46,11.83,12.64.28-.5.32-1.64,1.2-2,4.91-1.84,2.69-3.86.8-6-2.57-2.86-5-5.76-7.55-8.61-3.23-3.58-8.3-5.25-15.68-4.9l4.23-5.9-12.11.55a24.83,24.83,0,0,1,2.34-2.4,133.71,133.71,0,0,1,11-8,11.23,11.23,0,0,1,6.44-.74,47.74,47.74,0,0,1,10.43,3.9,5.67,5.67,0,0,0,6.06.08c6-3.07,6.38-7.09,1-10.6-1.91-1.25-4.12-2.46-5.3-4a4.62,4.62,0,0,1-.81-4.31c1.25-3.47,3.12-6.86,4.8-10.41,9.32.11,19.93,4.42,18.39,11.49-.63,2.92.92,5.35,3.88,7.78,2.39,1.95,2.72,4.85,5.15,6.77,4.5,3.56,10.28,6.52,14.76,10.09,3.84,3.07,7.84,3.79,13.33,2.11a10.92,10.92,0,0,1,2.2-.17c4.4,3.41,2.83,7,.69,10.53-3.59,5.86-7.52,11.64-11.49,17.41a163.24,163.24,0,0,1-26.39,29.2c-8.11,7.21-16.12,14.5-23.19,22.09-4.31,4.64-6.73,9.93-10.06,14.92a8.18,8.18,0,0,1-1.45,1.44c-.28,6.21-4.32,11.7-6.71,17.39a41.69,41.69,0,0,0-5.78,1.77c-5.82,2.79-11.26,5.88-17.19,8.58-13.14,6-26.28,12-39.86,17.6-7,2.91-15,5-22.62,7.4.81-1.8,1-3.81,2.53-5.36,17.4-17.88,26.66-37.74,36.79-57.29,7.4-14.28,11.64-29.16,17.71-43.71,3.58-8.58,5-17.3,6.15-26.08A9.67,9.67,0,0,1,711.36,1021.8Z" transform="translate(-109.33 -604.22)"/><path class="cls-24" d="M647.19,1156.59c7.57-2.44,15.57-4.49,22.62-7.4,13.58-5.6,26.71-11.61,39.86-17.6,5.93-2.7,11.37-5.79,17.19-8.58a41.28,41.28,0,0,1,5.78-1.77l-8.48,11.28C707,1145.07,684,1152,659.23,1157.1c-4.22.87-9,.73-13.51,1.05Z" transform="translate(-109.33 -604.22)"/><path class="cls-2" d="M533.23,1277.83c0,.06,0,.14,0,.16a1.14,1.14,0,0,1-.33,0,2.33,2.33,0,0,1,0-.28Z" transform="translate(-109.33 -604.22)"/><path class="cls-2" d="M733.37,825.77c5.65.63,11.28,1.34,17,1.86,10,.93,19.56-.69,29.21-1.94-.33-2-.62-3.67-.92-5.51,2.16-.49,4.14-.85,5.22,1A2,2,0,0,0,785,822c6.51,1.82,10.27,5.3,14.31,8.63a3.91,3.91,0,0,0,1.59.63c.15,1.67.3,2.89.34,4.11a1.9,1.9,0,0,1-.36,1.31c-2.63,3.3-4.86,6.77-8.13,9.82-4,3.73-14.14,4.26-19.45,1.27-.65-.37-.54-1.86.14-2.39,5.66-4.37,5.69-4.29-3.33-6.12-5.06-1-7.95,1.32-11.43,2.59-3.15,1.14-1.4,3-.92,4.65a51.23,51.23,0,0,1,1.1,6.93l-1.19.34-9.51-8.26c-2.1,2.64-4.29,4.71-5.26,7-.39.91,1.46,2.6,3,3.31,3.12,1.4,6.77,2.37,9.88,3.41-4.84,3.43-9.2,6.52-13.55,9.62.15.31.31.63.47.94l6.92.57h0c-2,2.56-5.07,3.47-11.16,2.61C727,871.3,718.27,866.81,710,862c-.37-.21-.35-.67-.51-1Z" transform="translate(-109.33 -604.22)"/><path class="cls-27" d="M850.22,904.93c.16-3.65.09-7.31.51-11a85.94,85.94,0,0,0-3.36-36.82c-.91-2.79-2.09-5.54-3.14-8.31,7.17,6.2,9.89,13.32,11.39,20.67,2.34,11.4.6,22.61-4.41,33.65C850.94,903.76,850.55,904.34,850.22,904.93Z" transform="translate(-109.33 -604.22)"/><path class="cls-24" d="M1207.17,1164.69l-15.72,22a1.27,1.27,0,0,1-.46.46c-11,5.15-21.34,11.05-34.84,13.8-7.86,1.61-13.11-.16-16.18-4.91a42.06,42.06,0,0,1-2.51-5.4c3.61.71,6.45,1.3,9.33,1.81,3.39.61,6.81,1.17,10.23,1.72,7.21,1.15,12.7-.43,17.08-3.93q16.19-12.95,32.46-25.83A5,5,0,0,0,1207.17,1164.69Z" transform="translate(-109.33 -604.22)"/><path class="cls-24" d="M1188.53,1169.78c-.29,1-.23,1.37-.51,1.63-5.9,5.52-11.6,11.12-17.85,16.48-4.77,4.1-11.75,5.2-19.27,3-4.55-1.3-8.54-3.34-13.74-5.43Z" transform="translate(-109.33 -604.22)"/><path class="cls-24" d="M1206.56,1164.36l1.14-.5-.53.83A5,5,0,0,1,1206.56,1164.36Z" transform="translate(-109.33 -604.22)"/><path class="cls-28" d="M829.88,1341.25c-8.27-1.82-16.49-3.73-24.82-5.44-11.14-2.29-22.37-4.41-33.53-6.66a8.06,8.06,0,0,1-2.24-1.24,9.08,9.08,0,0,1,2.71-1.32c2-.27,4.1-.21,6.16-.29,8.84-.38,17.68-.74,26.51-1.16,9-.42,18-.93,27-1.38,13.86-.69,27.71-1.4,41.57-2,13.43-.63,26.86-1.25,40.31-1.76,15.67-.6,31.36-1.56,47-1.49,14.75.07,29.54,1,44.21,2.07,15.8,1.15,31.47,2.92,47.2,4.41,2.92,2.86,5.38,6.17,13.29,4.31l-2.3,2c2.66-.28,4.88-.9,6.7-.6a35.67,35.67,0,0,1,9.27,2.54c4.37,2.1,8.57,3.61,14.22,2.06a8.61,8.61,0,0,1,1.93.6,61.36,61.36,0,0,0-6.48,1.6c-1.66.61-5.28,1.58-2.46,2.84,5.51,2.46,8.35,7.21,16.86,7.23,3.34,0,3.6,1.44,2.59,3.33-2.6,4.85-4.87,9.77-7.06,14.7-.83,1.89.43,3.52,3.56,4.12,4.06.79,8.28,1.27,12.41,1.92a38,38,0,0,0,16-.77,24.67,24.67,0,0,1,8.62-.68c2.22.26,4.07,1.72,6.08,2.65-2.25.67-4.5,1.33-6.73,2-4.22,1.29-8.82,2.29-12.53,4-3,1.37-6.21,2.12-9.35.57a10,10,0,0,0-7.33-.82,24.7,24.7,0,0,1-4.77.57c-13.44.4-26.88.7-40.31,1.17-1.82.06-3.56.91-5.34,1.39l-.34.07-.28-.15-.39-.44c-.09.14-.2.28-.29.41l-.28-.1c-6.36-1.33-12.38-5.47-19.45-.83a8.21,8.21,0,0,1-1.92.59c-10.61-.52-21.31-.69-31.82-1.65-16.31-1.49-32.7-3-48.65-5.47a412.07,412.07,0,0,1-45.22-9.24c-25.65-7-50.61-15-75.86-22.52C832.91,1341.94,831.38,1341.62,829.88,1341.25Zm216.09,36-.57,0c.09,0,.17.12.27.12A.73.73,0,0,0,1046,1377.28Z" transform="translate(-109.33 -604.22)"/><path class="cls-23" d="M1058.86,1381.7c1.78-.48,3.52-1.33,5.34-1.39,13.43-.47,26.88-.77,40.31-1.17a23.94,23.94,0,0,0,4.77-.58,10.11,10.11,0,0,1,7.34.83c3.13,1.55,6.37.8,9.34-.57,3.71-1.71,8.31-2.71,12.53-4,2.23-.69,4.49-1.35,6.73-2-2-.93-3.85-2.39-6.08-2.65a24.69,24.69,0,0,0-8.62.68,38,38,0,0,1-16,.77c-4.13-.65-8.35-1.13-12.41-1.92-3.13-.6-4.39-2.23-3.55-4.12,2.18-4.93,4.45-9.85,7-14.71,1-1.88.75-3.31-2.59-3.32-8.5,0-11.35-4.77-16.86-7.23-2.82-1.26.8-2.23,2.46-2.84a61.36,61.36,0,0,1,6.48-1.6,8.79,8.79,0,0,0-1.92-.6c-5.65,1.55-9.86,0-14.23-2.06a36.11,36.11,0,0,0-9.26-2.55c-1.83-.29-4.05.33-6.71.6.69-.59,1.14-1,2.3-2-7.91,1.86-10.37-1.45-13.29-4.31,8,1.42,16.13,2.76,24.13,4.27,22.55,4.25,45.48,8,66.54,14.64,13.77,4.37,27.09,9.26,40.53,14a33.17,33.17,0,0,1,5.23,2.84c-10.24,7.42-21,14.53-34.81,19.59l.07,0-1.65.42-8.3,1.73c-11.25.19-22.51.63-33.75.5C1092.92,1382.72,1075.89,1382.12,1058.86,1381.7Z" transform="translate(-109.33 -604.22)"/><path class="cls-24" d="M1231.15,878.9l26.78,1.09c-12,1.84-24.2,3.2-35.8,5.66-8.52,1.81-16.27,5-24.26,7.69-1.64.55-2.78,1.65-4.15,2.5-2.36-1.86-2-3.74-.58-5.8,3.57-5.1,6.93-10.25,10.37-15.38l10.44-8.43C1214.13,874,1217.68,879.25,1231.15,878.9Z" transform="translate(-109.33 -604.22)"/><path class="cls-24" d="M1181.24,977.31a1.21,1.21,0,0,1,0,.5c.68,1.9,1,3.89,2.12,5.69,2.59,4.16,2.19,7.71-1.6,9.83s-11,2.43-16.8.73c-4.74-1.39-6.15-4.37-2.92-6.78a130.45,130.45,0,0,1,12.09-8.3C1175.8,978,1178.82,977.84,1181.24,977.31Z" transform="translate(-109.33 -604.22)"/><path class="cls-25" d="M1181.87,971.74c2-.89,4-1.91,6.13-2.63a38.93,38.93,0,0,1,5.3-1l-6.69,4.29Z" transform="translate(-109.33 -604.22)"/><path class="cls-26" d="M627.51,1486.61c0-6.51.15-13,0-19.54q-.42-16.27,18.31-27.82c1-.64,2-1.3,3.07-2,35.06-17.5,68.32-36.14,97.76-58.37.64,1.76,1.19,2.63,1.25,3.51.91,14.91,1.87,29.82,2.56,44.74a147.24,147.24,0,0,1,0,20.58c-1.45,15.47-11.59,28.89-27.53,40.78a151.38,151.38,0,0,1-33,18.48c-13.45,5.56-27.16,10.88-41,16.1-3.81,1.45-8.37,2.16-12.58,3.21-.57-2.92-1.25-5.84-1.67-8.77-.94-6.52-1.86-13-2.54-19.57-.2-1.94.43-3.91.69-5.86a10.07,10.07,0,0,0,1-1.47c7.6-18.78,24.16-34.16,47.62-47,8.48-4.65,16.48-9.65,24.28-14.74,6.43-4.21,11.32-9.07,13.13-14.86.87-2.8,1.09-5.57-2.26-8.55-1.05,1.21-2.58,2.16-2.57,3.1.07,7.41-4.89,13.61-12.88,18.82-9.32,6.07-19.26,11.79-29.07,17.58-18.42,10.86-33.08,23.15-40.36,38.36C631.12,1484.57,629,1485.52,627.51,1486.61Z" transform="translate(-109.33 -604.22)"/><path class="cls-27" d="M1400.76,876.34l23-.24c8.22.61,16.45,1.19,24.66,1.84,18.42,1.46,37.3,1.39,54.79,6a28.19,28.19,0,0,1,3.71,1.5,22.48,22.48,0,0,1-4.67.57c-12.88-1.09-25.73-2.29-38.6-3.46-17.09-1.55-34.2-3.07-51.29-4.67C1408.44,877.51,1404.61,876.86,1400.76,876.34Z" transform="translate(-109.33 -604.22)"/><path class="cls-27" d="M1533.22,893l-7.41-5.6,15.37-1.61Z" transform="translate(-109.33 -604.22)"/><path class="cls-23" d="M1254.07,851.15c8.93.82,17-1.18,25.1,0,0,.38.07.77.1,1.15L1254.68,854C1254.5,853.17,1254.34,852.43,1254.07,851.15Z" transform="translate(-109.33 -604.22)"/><path class="cls-24" d="M563.15,1203.09l-20.95,12.16c-.63.36-1.37.65-2.06,1-.34-13.52,9.35-24,26.63-32,16.05-7.44,34.61-11.58,54.1-14.32l.56.34q-19.24,10.82-38.49,21.63C576.31,1195.58,569.74,1199.34,563.15,1203.09Z" transform="translate(-109.33 -604.22)"/><path class="cls-24" d="M620.87,1169.88l1-.14-.43.48Z" transform="translate(-109.33 -604.22)"/><path class="cls-23" d="M1035.92,1381.25a8.36,8.36,0,0,0,1.92-.59c7.07-4.64,13.09-.5,19.44.83-3.74,0-7.49,0-11.23,0C1042.67,1381.43,1039.29,1381.33,1035.92,1381.25Z" transform="translate(-109.33 -604.22)"/><path class="cls-23" d="M1057.56,1381.59l.3-.41.39.44-.36.09Z" transform="translate(-109.33 -604.22)"/><path class="cls-26" d="M967.39,1174.38c-1.56-1-3.2-1.88-4.67-2.89-5.5-3.75-5.12-7.84,1.24-11.09a52.69,52.69,0,0,1,21.41-5.41c14.47-.66,29-.74,43.51-1,1.63,0,3.26,0,4.89-.07l2.1,1c6.82,3.17,6.37,8.71-1.45,10.79-19.45,5.18-39.33,9.54-61,9.39A58.25,58.25,0,0,1,967.39,1174.38Z" transform="translate(-109.33 -604.22)"/><path class="cls-14" d="M627.51,1486.61c1.44-1.09,3.61-2,4.2-3.28,7.28-15.21,21.94-27.5,40.36-38.36,9.81-5.79,19.75-11.51,29.07-17.58,8-5.21,13-11.41,12.88-18.82,0-.94,1.52-1.89,2.57-3.1,3.35,3,3.13,5.75,2.25,8.55-1.8,5.79-6.69,10.65-13.12,14.86-7.8,5.09-15.8,10.09-24.28,14.74-23.46,12.88-40,28.26-47.62,47a10.07,10.07,0,0,1-1,1.47h-6.46C626.76,1490.31,627.13,1488.46,627.51,1486.61Z" transform="translate(-109.33 -604.22)"/><path class="cls-23" d="M481.07,1262.33l.15,1.64c-4.84,2.3-5.11,5.9-6.92,9-.62,1.09-.71,2.3-1.42,3.36-.34.5-1.57.78-2.4,1.17-.43-.54-1.18-1.07-1.21-1.61a14.91,14.91,0,0,1,.51-3.2q1.68-4.37,3.34-8.74l2.06-2.89,5.21.74-.09,0Z" transform="translate(-109.33 -604.22)"/><path class="cls-24" d="M1152,1380.68l1.65-.42Z" transform="translate(-109.33 -604.22)"/><path class="cls-14" d="M625.64,1293.92l-1.38-.74,1.09-.31c.12.34.23.68.34,1Z" transform="translate(-109.33 -604.22)"/><path class="cls-18" d="M468.81,1178.74c.53-8.7,1.19-17.4,1.54-26.1.28-7,.18-14.05.24-21.07.27,2.58.68,5.16.75,7.74.05,1.49.4,2.51,3.05,3.16a3.59,3.59,0,0,1,2.26,2.49c.29,1.26-.16,2.59-.35,4.42,4.44-1,8.07-1.89,11.84-2.53a7.63,7.63,0,0,1,4.14.46c5.77,3.51,11.34,7.15,16.88,10.79.58.37.6,1.07.88,1.61a13.49,13.49,0,0,1-3.18.21c-2.42-.4-4.71-1.11-7.13-1.52-5.14-.89-8.2.68-7.78,3.89,0,.09,0,.19,0,.27,2.18,3.91,2.58,7.13-4.68,9.76-5.5,2-10.68,3.71-17.18,3.69Z" transform="translate(-109.33 -604.22)"/><path class="cls-15" d="M466.83,1205.48l-1.46,1.3c.24-.48.5-1,.75-1.42A2.7,2.7,0,0,1,466.83,1205.48Z" transform="translate(-109.33 -604.22)"/><path class="cls-11" d="M473.09,1074.89a11.22,11.22,0,0,1-.76-2.27c-.36-3.42-.68-6.84-.93-10.26-.63-8.64-1.15-17.28-1.85-25.92-.81-10.08-1.76-20.15-2.66-30.22-.88-9.8-1.68-19.6-2.7-29.39-.66-6.28-1.7-12.54-2.45-18.81-.07-.57.7-1.18,1.08-1.77.79.47,2.14.89,2.27,1.42,2.21,8.59,4.45,17.18,6.31,25.8,1.69,7.83,3.07,15.69,4.33,23.55.88,5.45,1.47,10.93,1.92,16.41.47,5.85,1.11,11.73.81,17.57-.43,8.54-1.66,17.07-2.49,25.6-.18,1.8,0,3.62-.2,5.42a12.26,12.26,0,0,1-1.14,2.92Z" transform="translate(-109.33 -604.22)"/><path class="cls-6" d="M1409.65,989.15a1.35,1.35,0,0,1,.49,0c-12.06,12.07-30.29,18.5-52.52,21.2-4.06.49-8.22.65-12.34,1l-.84,0c-20.67,1.19-38.82-2.54-54-11-8.33-4.64-11.11-11.18-12.88-17.76-2.31-8.55.25-16.91,3.08-25.25.29-.88.55-1.76,1-3.18-4.85,0-9.35-.1-13.83,0a246.37,246.37,0,0,0-52.16,7.39,12.45,12.45,0,0,1-5.39-.07c14.7-6.22,31.23-8.7,48.6-9.6l.84,0,48.22.07.79,0c4.39.07,9-.32,12.57,2.23-5,0-9.69,0-14.42,0s-9.19-.2-13.78-.27c-3.41-.06-5.69.94-6.56,2.93-4.53,10.42-6.15,20.91-1.28,31.46,5,10.87,17.91,16.6,35,19.28,5.24.82,10.79.93,16.2,1.37l.8,0a144.55,144.55,0,0,0,35.43-4.15A91.59,91.59,0,0,0,1406,988.71l.8,0Z" transform="translate(-109.33 -604.22)"/><path class="cls-6" d="M1407.68,983.76c-.36.86-.73,1.71-1.1,2.57-12.51-5.16-25-10.29-37.54-15.48-6.48-2.69-12.86-5.47-19.28-8.21l7.83-1.61,51.05,18.05-.7,2L1383.37,972l-.92.7a18.36,18.36,0,0,0,3.24,2.31c6.07,2.75,12.23,5.42,18.43,8A20.16,20.16,0,0,0,1407.68,983.76Z" transform="translate(-109.33 -604.22)"/><path class="cls-14" d="M1337.24,1009l-.8,0A1,1,0,0,1,1337.24,1009Z" transform="translate(-109.33 -604.22)"/><path class="cls-14" d="M1308.7,952l-.79,0A1,1,0,0,1,1308.7,952Z" transform="translate(-109.33 -604.22)"/><path class="cls-14" d="M1259.69,951.9l-.84,0A1.27,1.27,0,0,1,1259.69,951.9Z" transform="translate(-109.33 -604.22)"/><path class="cls-14" d="M1344.44,1011.39l.84,0-.41.09Z" transform="translate(-109.33 -604.22)"/><path class="cls-24" d="M1408.64,979.08,1357.59,961c-.06-.4-.11-.79-.17-1.18l1.27-.49c4,.56,8,1,11.9,1.7,7.78,1.37,15.56,2.78,23.24,4.35,8.1,1.66,15.14,4.24,17.87,9.6C1412.57,976.73,1414,978.93,1408.64,979.08Z" transform="translate(-109.33 -604.22)"/><path class="cls-23" d="M1407.68,983.76a20,20,0,0,1-3.56-.73c-6.2-2.63-12.36-5.3-18.43-8a17.86,17.86,0,0,1-3.24-2.31l.92-.69,24.57,9.14C1407.85,982,1407.77,982.88,1407.68,983.76Z" transform="translate(-109.33 -604.22)"/><path class="cls-6" d="M1358.69,959.36l-1.27.49-1.55-1.54,1.15-.49Z" transform="translate(-109.33 -604.22)"/><path class="cls-14" d="M1409.65,989.15l-2.82-.45Z" transform="translate(-109.33 -604.22)"/><path class="cls-22" d="M481.07,1262.33l-.77-.52Z" transform="translate(-109.33 -604.22)"/><path class="cls-2" d="M749.62,870.32l.18-.2-.18.2Z" transform="translate(-109.33 -604.22)"/><path class="cls-23" d="M1046,1377.28a1.32,1.32,0,0,1-.3.1c-.1,0-.18-.09-.27-.13Z" transform="translate(-109.33 -604.22)"/></svg>