<svg id="Filled_cutting_cut_Ex" height="512" viewBox="0 0 512 512" width="512" xmlns="http://www.w3.org/2000/svg" data-name="Filled cutting cut Ex"><g><g><path d="m340 24h56a60 60 0 0 1 60 60v212h-176v-212a60 60 0 0 1 60-60z" fill="#fac850"/><path d="m488 488v-184l-80-40h-80l-96 40v184z" fill="#25b1fa"/><path d="m488 496h-257v-16h249v-56h16v64a8 8 0 0 1 -8 8z"/><path d="m328 264 40 40 40-40-16-48h-48z" fill="#ffd4cf"/><path d="m392 216h-48l-6.2119 18.6357 18.4961 9.3663a26.0063 26.0063 0 0 0 23.3716.0585l18.598-9.2988z" fill="#fbb8b0"/><path d="m452 112h-20v-6a10 10 0 0 0 -10-10h-54v8a40 40 0 0 1 -40 40h-24v37.1558a30 30 0 0 0 16.4471 26.7642l43.0638 21.8069a10 10 0 0 0 8.99.0227l42.9157-21.4578a30 30 0 0 0 16.5834-26.8328v-13.459h20a20 20 0 0 0 20-20v-16a20 20 0 0 0 -20-20z" fill="#ffd4cf"/><path d="m392 128h16v16h-16z"/></g><path d="m328 264-56 64 40 16-16 32 48 112h24z" fill="#80daff"/><path d="m408 264 56 64-40 16 16 32-48 112h-24z" fill="#80daff"/><g><path d="m136 24a112.0287 112.0287 0 0 1 96.82 168.3389l15.18 55.6611-62.7095-11.4019a112.0106 112.0106 0 1 1 -49.2905-212.5981z" fill="#80daff"/><path d="m248.0005 256a7.9867 7.9867 0 0 1 -1.4317-.1289l-60.166-10.94a120.033 120.033 0 0 1 -170.1015-100.3676l15.96-1.127a104.0513 104.0513 0 0 0 149.5039 85.98 8.01 8.01 0 0 1 4.9566-.6894l50.22 9.1318-11.84-43.415a8.003 8.003 0 0 1 .8071-6.1348 104.01 104.01 0 1 0 -193.6477-59.7456l-15.96-1.127a120.0039 120.0039 0 1 1 225.1015 65.9678l14.3155 52.4912a8 8 0 0 1 -7.7177 10.1045z"/><path d="m88 72h96v16h-96z"/><path d="m120 112h96v16h-96z"/><path d="m56 112h48v16h-48z"/><path d="m56 152h96v16h-96z"/><path d="m168 152h48v16h-48z"/><path d="m136 192h64v16h-64z"/><path d="m88 192h32v16h-32z"/></g><g><path d="m72 344h48v32h48v-32h48v64l26.1421 26.1421a20 20 0 0 1 5.8579 14.1422v19.7157a20 20 0 0 1 -20 20h-168a20 20 0 0 1 -20-20v-19.7157a20 20 0 0 1 5.8579-14.1422l26.1421-26.1421z" fill="#fa7d29"/><path d="m96 304h96l58.3246 19.4415a20 20 0 0 1 13.6754 18.9737v21.5848a20 20 0 0 1 -20 20h-22.8121a20 20 0 0 1 -18.3829-12.1216l-6.7528-15.7568a20 20 0 0 0 -18.383-12.1216h-67.3383a20 20 0 0 0 -18.3828 12.1215l-6.7531 15.757a20 20 0 0 1 -18.3829 12.1215h-22.8121a20 20 0 0 1 -20-20v-21.5848a20 20 0 0 1 13.6754-18.9737z" fill="#fac850"/><path d="m480.522 291.3164-65.98-32.99-11.6154-34.8454 16.0675-8.0337a37.7925 37.7925 0 0 0 21.0059-33.9883v-5.459h8v88h16v-90.7041a28.0361 28.0361 0 0 0 16-25.2959v-16a28.0361 28.0361 0 0 0 -16-25.2959v-22.7041a68.0773 68.0773 0 0 0 -68-68h-56a68.0773 68.0773 0 0 0 -68 68v194.6665l-30.7695 12.8208a27.928 27.928 0 0 0 -15.2275 15.4138l-31.473-10.4911a8.0117 8.0117 0 0 0 -2.53-.41h-96a8.0117 8.0117 0 0 0 -2.53.41l-58.325 19.4425a27.9643 27.9643 0 0 0 -19.145 26.5625v21.585a28.0314 28.0314 0 0 0 28 28h20v12.6865l-23.7983 23.7989a27.81 27.81 0 0 0 -8.2017 19.7988v19.7158a28.0314 28.0314 0 0 0 28 28h168a28.0314 28.0314 0 0 0 28-28v-19.7158a27.8112 27.8112 0 0 0 -8.2012-19.7988l-23.7988-23.7989v-12.6865h20a28.0314 28.0314 0 0 0 28-28v-21.585a28.0954 28.0954 0 0 0 -.66-6.0627l29.6163 11.8469-12.1118 24.2227a7.9987 7.9987 0 0 0 -.1977 6.73l48 112a7.9994 7.9994 0 0 0 7.3532 4.8481h48a7.9994 7.9994 0 0 0 7.353-4.8486l48-112a7.9987 7.9987 0 0 0 -.1977-6.73l-12.1118-24.2227 31.9277-12.7715a7.9995 7.9995 0 0 0 3.0493-12.6953l-29.21-33.3833 32.5555 16.2779a11.936 11.936 0 0 1 6.634 10.7335v91.64h16v-91.64a27.85 27.85 0 0 0 -15.478-25.0436zm-56.522-128.2605-41.8887 20.9441h-22.1113v16h24a7.9964 7.9964 0 0 0 3.5776-.8447l36.4224-18.2112v.5149a21.8816 21.8816 0 0 1 -12.1611 19.6777l-42.9151 21.4571a2.01 2.01 0 0 1 -1.7988-.004l-43.064-21.8066a21.8963 21.8963 0 0 1 -12.061-19.627v-29.1562h16a48.0547 48.0547 0 0 0 48-48h46a2.0023 2.0023 0 0 1 2 2zm-25.1528 98.783-30.8472 30.8476-30.8472-30.8476 10.4072-31.2222 12.3352 6.2466a18.0721 18.0721 0 0 0 16.1826.042l12.3924-6.1963zm65.1528-129.8389v16a12.0134 12.0134 0 0 1 -12 12h-12v-40h12a12.0134 12.0134 0 0 1 12 12zm-176-48a52.0589 52.0589 0 0 1 52-52h56a52.0589 52.0589 0 0 1 52 52v20h-8.1107a18.0261 18.0261 0 0 0 -17.8893-16h-62v16a32.0364 32.0364 0 0 1 -32 32h-40zm0 68h8v29.1562a37.8189 37.8189 0 0 0 20.833 33.9l16.2976 8.253-11.5686 34.706-33.562 13.9848zm-51.5142 287.8a11.919 11.919 0 0 1 3.5142 8.4842v19.7158a12.0134 12.0134 0 0 1 -12 12h-168a12.0134 12.0134 0 0 1 -12-12v-19.7158a11.9177 11.9177 0 0 1 3.5146-8.4842l26.1421-26.1426a8.0007 8.0007 0 0 0 2.3433-5.6574v-19.2935a27.9629 27.9629 0 0 0 12.5479-13.6765l6.7534-15.7578a11.986 11.986 0 0 1 11.0298-7.2722h1.6689v24a8 8 0 0 0 8 8h48a8 8 0 0 0 8-8v-24h1.6694a11.9859 11.9859 0 0 1 11.03 7.2734l6.7525 15.7549a27.9665 27.9665 0 0 0 12.5481 13.6782v19.2935a8.0007 8.0007 0 0 0 2.3433 5.6572zm-108.4858-71.8v-16h32v16zm128-4a12.0134 12.0134 0 0 1 -12 12h-22.812a11.9856 11.9856 0 0 1 -11.03-7.2734l-6.7529-15.7559a27.9652 27.9652 0 0 0 -19.4051-16.249v-.7217h-80v.7217a27.9644 27.9644 0 0 0 -19.4048 16.2483l-6.7534 15.7578a11.9862 11.9862 0 0 1 -11.0298 7.2722h-22.812a12.0134 12.0134 0 0 1 -12-12v-21.585a11.9845 11.9845 0 0 1 8.2051-11.3838l57.0932-19.0312h93.4034l57.0927 19.03a11.9863 11.9863 0 0 1 8.2056 11.385zm-3.1455-48.1484-11.6029-3.8677a11.9748 11.9748 0 0 1 6.1332-5.7271l51.9517-21.6468-33.3565 38.1224a7.992 7.992 0 0 0 -.8948 1.2471 27.97 27.97 0 0 0 -12.2307-8.1279zm96.4209 164.1484-44.46-103.7412 14.34-28.6807a8 8 0 0 0 -4.1841-11.0058l-29.5123-11.8047 37.5937-42.9649 35.3921 198.1973zm-8.9226-192.3333 21.99 21.99a8 8 0 0 0 11.3134 0l21.99-21.99-27.6462 154.8243zm110.1882 37.1009-29.5122 11.8047a8 8 0 0 0 -4.1841 11.0058l14.34 28.6807-44.4601 103.7412h-9.1694l35.3921-198.1973z"/></g><g><path d="m160 408h16v16h-16z"/><path d="m136 408h16v16h-16z"/><path d="m160 440h16v16h-16z"/><path d="m136 440h16v16h-16z"/><path d="m112 408h16v16h-16z"/><path d="m112 440h16v16h-16z"/></g></g></svg>